<svg width="38" height="44" viewBox="0 0 38 44" fill="none" xmlns="http://www.w3.org/2000/svg">
<path fill-rule="evenodd" clip-rule="evenodd" d="M35.3552 9.09764L21.6447 0.959031C20.0083 -0.0123852 17.9913 -0.0123852 16.3549 0.959031L2.64425 9.09764C1.00829 10.0691 0 11.864 0 13.8068V30.0841C0 32.0264 1.00829 33.8222 2.64473 34.7937L16.3553 42.9308C17.1735 43.4167 18.0859 43.6591 18.9999 43.6591C19.9134 43.6591 20.8261 43.4167 21.6443 42.9308L35.3548 34.7937C36.9911 33.8222 38 32.0264 38 30.0841V13.8068C38 11.864 36.9912 10.0691 35.3552 9.09764Z" fill="#242938"/>
<path fill-rule="evenodd" clip-rule="evenodd" d="M16.8344 42.0975L3.12384 33.9602C1.7828 33.1642 0.949753 31.6789 0.949753 30.0838V13.8069C0.949753 12.2117 1.78283 10.7265 3.12337 9.93084L16.8344 1.79223C17.4917 1.40203 18.2404 1.19567 18.9998 1.19567C19.7587 1.19567 20.5074 1.40203 21.1653 1.79223L34.8758 9.93084C36.0058 10.6016 36.768 11.7631 36.9823 13.0658C36.5276 12.0954 35.5021 11.8315 34.3071 12.5296L21.3362 20.5414C19.719 21.4868 18.5264 22.5478 18.5253 24.4979V40.4806C18.5244 41.6484 18.9961 42.4047 19.7205 42.6241C19.4825 42.6653 19.2425 42.694 18.9998 42.694C18.2404 42.694 17.4917 42.4877 16.8344 42.0975ZM35.3551 9.09729L21.6446 0.959161C20.8264 0.473214 19.9129 0.230469 18.9998 0.230469C18.0865 0.230469 17.1729 0.473214 16.3547 0.959161L2.64413 9.09729C1.00816 10.0687 -0.00012207 11.8641 -0.00012207 13.8069V30.0838C-0.00012207 32.0261 1.00816 33.8219 2.64461 34.7934L16.3552 42.9309C17.1738 43.4164 18.0865 43.6592 18.9998 43.6592C19.9133 43.6592 20.826 43.4164 21.6442 42.9309L35.3551 34.7934C36.9915 33.8219 37.9999 32.0261 37.9999 30.0838V13.8069C37.9999 11.8641 36.9915 10.0687 35.3551 9.09729Z" fill="white"/>
<path fill-rule="evenodd" clip-rule="evenodd" d="M31.761 31.6577L28.3471 33.701C28.2565 33.7538 28.1901 33.8131 28.1894 33.9219V34.8152C28.1894 34.9244 28.2628 34.9698 28.3531 34.9166L31.8201 32.8097C31.9104 32.7569 31.9243 32.6559 31.925 32.5471V31.7591C31.925 31.6505 31.8516 31.6049 31.761 31.6577Z" fill="#47B353"/>
<path fill-rule="evenodd" clip-rule="evenodd" d="M24.4912 24.1376C24.6018 24.0816 24.6928 24.1504 24.6943 24.295L24.7058 25.4761C25.2002 25.2794 25.6297 25.2268 26.0189 25.3167C26.1033 25.3393 26.1407 25.4542 26.1061 25.5905L25.8462 26.6372C25.826 26.7162 25.7815 26.7961 25.7279 26.8458C25.7053 26.868 25.6823 26.8851 25.6595 26.8966C25.6245 26.9144 25.59 26.9201 25.557 26.9134C25.3794 26.8732 24.957 26.7809 24.2926 27.1175C23.5955 27.4703 23.3517 28.076 23.3564 28.5254C23.3623 29.0622 23.6377 29.2249 24.5883 29.2411C25.8551 29.2622 26.4025 29.8157 26.4158 31.0916C26.4288 32.3446 25.76 33.69 24.7368 34.5145L24.7594 35.6836C24.7607 35.8243 24.6693 35.9856 24.5588 36.0417L23.8663 36.4406C23.7553 36.4966 23.6644 36.4275 23.6628 36.2868L23.6509 35.1368C23.0579 35.3833 22.4568 35.4428 22.0729 35.2886C22.0006 35.2604 21.9696 35.1535 21.9982 35.0319L22.2492 33.9749C22.2692 33.8915 22.3133 33.8081 22.3732 33.7551C22.3943 33.7345 22.4162 33.7187 22.4381 33.7076C22.4779 33.6876 22.5168 33.6833 22.5498 33.6956C22.9634 33.835 23.4926 33.7699 24.0014 33.5124C24.6478 33.1854 25.0801 32.5261 25.0734 31.8712C25.0671 31.2769 24.7455 31.03 23.9632 31.0241C22.9673 31.0269 22.039 30.8306 22.0236 29.3647C22.0112 28.1578 22.6388 26.9019 23.6322 26.1078L23.6198 24.9276C23.6183 24.7825 23.7069 24.6229 23.8209 24.5656L24.4912 24.1376Z" fill="#242938"/>
</svg>
