<svg width="54" height="25" viewBox="0 0 54 25" fill="none" xmlns="http://www.w3.org/2000/svg">
<path d="M49.0805 15.003L42.4172 11.1821L41.2679 10.6851L14.0091 10.8714V24.7105H49.0805V15.003Z" fill="white"/>
<path d="M36.9537 23.42C37.2799 22.3017 37.1557 21.2766 36.612 20.5155C36.115 19.8165 35.2763 19.4127 34.2667 19.3661L15.1467 19.1176C15.0225 19.1176 14.9138 19.0555 14.8516 18.9623C14.7895 18.8691 14.774 18.7448 14.805 18.6206C14.8672 18.4342 15.0535 18.2944 15.2555 18.2789L34.5463 18.0304C36.8295 17.9216 39.3146 16.0733 40.1844 13.8056L41.2872 10.9322C41.3338 10.8079 41.3493 10.6837 41.3183 10.5594C40.0757 4.93682 35.0588 0.743164 29.0635 0.743164C23.534 0.743164 18.8434 4.31554 17.1659 9.27027C16.0787 8.4626 14.6963 8.0277 13.2052 8.16749C10.5492 8.43154 8.42135 10.5594 8.1573 13.2154C8.09518 13.8988 8.14177 14.5667 8.29709 15.188C3.96365 15.3122 0.5 18.8536 0.5 23.2181C0.5 23.6064 0.531064 23.9947 0.57766 24.383C0.608724 24.5694 0.764044 24.7091 0.950429 24.7091H36.2393C36.4412 24.7091 36.6276 24.5694 36.6897 24.3674L36.9537 23.42Z" fill="#F38020"/>
<path d="M43.047 11.165C42.8762 11.165 42.6898 11.165 42.5189 11.1806C42.3947 11.1806 42.286 11.2738 42.2394 11.398L41.4938 13.9919C41.1677 15.1102 41.2919 16.1353 41.8355 16.8964C42.3326 17.5953 43.1713 17.9991 44.1809 18.0457L48.2503 18.2943C48.3745 18.2943 48.4833 18.3564 48.5454 18.4496C48.6075 18.5428 48.6231 18.6826 48.592 18.7913C48.5299 18.9777 48.3435 19.1175 48.1416 19.133L43.9013 19.3815C41.6026 19.4902 39.133 21.3385 38.2632 23.6062L37.9525 24.3984C37.8904 24.5537 37.9991 24.709 38.17 24.709H52.7391C52.9099 24.709 53.0652 24.6003 53.1118 24.4294C53.3603 23.5286 53.5001 22.5811 53.5001 21.6026C53.5001 15.8557 48.8094 11.165 43.047 11.165" fill="#FAAE40"/>
</svg>
