<svg width="38" height="28" viewBox="0 0 38 28" fill="none" xmlns="http://www.w3.org/2000/svg">
<path d="M21.5055 12.8191H25.4418V9.25775H21.5055V12.8191ZM16.8198 12.8191H20.7558V9.25775H16.8198V12.8191ZM12.2275 12.8191H16.1637V9.25775H12.2275V12.8191ZM7.63532 12.8191H11.4778V9.25775H7.63532V12.8191ZM2.94943 12.8191H6.88558V9.25775H2.94943V12.8191ZM7.63532 8.50807H11.4778V4.94677H7.63532V8.50807ZM12.2275 8.50807H16.1637V4.94677H12.2275V8.50807ZM16.8198 8.50807H20.7558V4.94677H16.8198V8.50807ZM16.8198 4.19703H20.7558V0.635742H16.8198V4.19703ZM38 11.226C38 11.226 36.313 9.63262 32.8455 10.195C32.4706 7.47717 29.5653 5.88396 29.5653 5.88396C29.5653 5.88396 26.8476 9.16408 28.8156 12.8191C28.2534 13.1003 27.3161 13.4752 25.9103 13.4752H0.137884C-0.330713 15.2559 -0.330714 27.0642 12.6024 27.0642C21.8804 27.0642 28.8156 22.7533 32.0958 14.8808C36.9691 15.2559 38 11.226 38 11.226Z" fill="#2396ED"/>
</svg>
