<svg width="28" height="41" viewBox="0 0 28 41" fill="none" xmlns="http://www.w3.org/2000/svg">
<path d="M7.25808 40.9005C10.9813 40.9005 14.0037 37.878 14.0037 34.1548V27.4092H7.25808C3.53487 27.4092 0.512421 30.4316 0.512421 34.1548C0.512421 37.878 3.53487 40.9005 7.25808 40.9005Z" fill="#0ACF83"/>
<path d="M0.5 20.6565C0.5 16.9333 3.52245 13.9109 7.24566 13.9109H13.9913V27.4093H7.24566C3.52245 27.4093 0.5 24.3868 0.5 20.6636V20.6565Z" fill="#A259FF"/>
<path d="M0.5 7.15801C0.5 3.4348 3.52245 0.412354 7.24566 0.412354H13.9913V13.9107H7.24566C3.52245 13.9107 0.5 10.8883 0.5 7.16509V7.15801Z" fill="#F24E1E"/>
<path d="M13.9379 0.412354H20.6835C24.4067 0.412354 27.4292 3.4348 27.4292 7.15801C27.4292 10.8812 24.4067 13.9037 20.6835 13.9037H13.9379V0.412354Z" fill="#FF7262"/>
<path d="M27.5 20.6565C27.5 24.3798 24.4775 27.4022 20.7543 27.4022C17.0311 27.4022 13.9379 24.3798 13.9379 20.6565C13.9379 16.9333 16.9603 13.9109 20.6835 13.9109C24.4067 13.9109 27.4292 16.9333 27.4292 20.6565H27.5Z" fill="#1ABCFE"/>
</svg>
