<svg width="38" height="39" viewBox="0 0 38 39" fill="none" xmlns="http://www.w3.org/2000/svg">
<path d="M37.2826 17.3712L20.6927 0.781349C20.4657 0.554062 20.1959 0.373779 19.8991 0.250778C19.6021 0.127759 19.2839 0.0644531 18.9626 0.0644531C18.6414 0.0644531 18.3231 0.127759 18.0262 0.250778C17.7294 0.373779 17.4596 0.554062 17.2326 0.781349L13.789 4.22495L18.1588 8.59476C19.1752 8.23853 20.3389 8.48195 21.1487 9.29179C21.5342 9.67798 21.8034 10.1648 21.9254 10.6967C22.0473 11.2285 22.0173 11.784 21.8385 12.2996L26.0505 16.5115C27.0694 16.16 28.2449 16.3867 29.0582 17.2025C29.3288 17.4731 29.5433 17.7942 29.6896 18.1476C29.8359 18.5009 29.9111 18.8796 29.9111 19.262C29.9109 19.6445 29.8357 20.0232 29.6892 20.3765C29.5427 20.7297 29.3282 21.0508 29.0577 21.3212C28.7873 21.5917 28.4662 21.806 28.1128 21.9523C27.7594 22.0988 27.3808 22.174 26.9983 22.1739C26.6159 22.1739 26.237 22.0984 25.8838 21.9521C25.5305 21.8057 25.2094 21.5912 24.939 21.3206C24.084 20.4656 23.8728 19.2069 24.305 18.1536L20.3769 14.2256V24.5624C20.6621 24.7034 20.9226 24.8896 21.1487 25.1134C21.419 25.3838 21.6335 25.7047 21.78 26.0581C21.9263 26.4112 22.0015 26.7899 22.0015 27.1724C22.0015 27.5548 21.9263 27.9335 21.78 28.2867C21.6335 28.64 21.419 28.9611 21.1487 29.2315C20.8783 29.5018 20.5572 29.7163 20.204 29.8626C19.8507 30.0089 19.472 30.0844 19.0897 30.0844C18.7073 30.0844 18.3286 30.0089 17.9754 29.8626C17.622 29.7163 17.301 29.5018 17.0306 29.2315C16.7599 28.9611 16.5452 28.6402 16.3987 28.287C16.252 27.9337 16.1766 27.5548 16.1766 27.1724C16.1766 26.7899 16.252 26.4112 16.3987 26.0579C16.5452 25.7045 16.7599 25.3836 17.0306 25.1134C17.312 24.8332 17.6243 24.6206 17.9842 24.4781V14.0451C17.6374 13.9026 17.312 13.6925 17.0306 13.4099C16.6217 13.0015 16.3438 12.4806 16.2321 11.9136C16.1205 11.3466 16.1802 10.7592 16.4036 10.2263L12.0932 5.91825L0.717466 17.2821C0.490027 17.5094 0.309592 17.7792 0.186477 18.0761C0.0633624 18.3731 0 18.6913 0 19.0128C0 19.3342 0.0633624 19.6527 0.186477 19.9496C0.309592 20.2466 0.490027 20.5164 0.717466 20.7436L17.3086 37.3322C17.5356 37.5594 17.8054 37.7397 18.1022 37.8628C18.3991 37.9857 18.7173 38.049 19.0386 38.049C19.3599 38.049 19.6781 37.9857 19.9751 37.8628C20.2719 37.7397 20.5417 37.5594 20.7687 37.3322L37.2826 20.8445C37.51 20.6173 37.6905 20.3475 37.8136 20.0505C37.9367 19.7536 38 19.4353 38 19.1139C38 18.7924 37.9367 18.474 37.8136 18.177C37.6905 17.88 37.51 17.6103 37.2826 17.383" fill="#F03C2E"/>
</svg>
