<svg width="50" height="50" viewBox="0 0 50 50" fill="none" xmlns="http://www.w3.org/2000/svg">
<path d="M25.0001 0.849609C11.1947 0.849609 0 12.0424 0 25.8497C0 36.8956 7.16328 46.2666 17.0967 49.5724C18.346 49.8038 18.8048 49.0301 18.8048 48.3697C18.8048 47.7736 18.7815 45.8041 18.7709 43.7151C11.8157 45.2274 10.3481 40.7655 10.3481 40.7655C9.21085 37.8758 7.57228 37.1075 7.57228 37.1075C5.30413 35.5558 7.74326 35.5876 7.74326 35.5876C10.2538 35.7641 11.5757 38.164 11.5757 38.164C13.8054 41.986 17.4241 40.8809 18.8507 40.2423C19.075 38.6263 19.723 37.5236 20.4379 36.8993C14.8852 36.267 9.04772 34.1233 9.04772 24.5441C9.04772 21.8147 10.0244 19.5844 11.6237 17.8337C11.3641 17.2039 10.5085 14.6613 11.8659 11.2177C11.8659 11.2177 13.9652 10.5457 18.7427 13.7803C20.7367 13.2262 22.8755 12.9486 25.0001 12.9392C27.1247 12.9486 29.265 13.2262 31.263 13.7803C36.0348 10.5457 38.1312 11.2177 38.1312 11.2177C39.4919 14.6613 38.6359 17.2039 38.3763 17.8337C39.9792 19.5844 40.9491 21.8146 40.9491 24.5441C40.9491 34.1461 35.1007 36.2605 29.5339 36.8793C30.4305 37.6552 31.2295 39.1767 31.2295 41.509C31.2295 44.8539 31.2005 47.5462 31.2005 48.3697C31.2005 49.035 31.6504 49.8145 32.9179 49.5691C42.8457 46.2596 50 36.8919 50 25.8497C50 12.0424 38.8069 0.849609 25.0001 0.849609Z" fill="white"/>
</svg>
