<svg width="42" height="42" viewBox="0 0 42 42" fill="none" xmlns="http://www.w3.org/2000/svg">
<path d="M7.43749 0.694828H34.5625C35.5394 0.693911 36.507 0.884705 37.4098 1.25629C38.3126 1.62788 39.1328 2.17296 39.8236 2.86034C40.5145 3.54772 41.0623 4.36391 41.4357 5.26219C41.8092 6.16048 42.0009 7.12322 42 8.09532V34.0406C42.0009 35.0127 41.8092 35.9754 41.4357 36.8737C41.0623 37.772 40.5145 38.5882 39.8236 39.2756C39.1328 39.963 38.3126 40.508 37.4098 40.8796C36.507 41.2512 35.5394 41.442 34.5625 41.4411H7.43749C6.46052 41.442 5.49297 41.2512 4.59019 40.8796C3.68742 40.508 2.86715 39.963 2.17633 39.2756C1.48551 38.5882 0.937702 37.772 0.564259 36.8737C0.190815 35.9754 -0.000932755 35.0127 -1.19582e-05 34.0406V8.09532C-0.000932755 7.12322 0.190815 6.16048 0.564259 5.26219C0.937702 4.36391 1.48551 3.54772 2.17633 2.86034C2.86715 2.17296 3.68742 1.62788 4.59019 1.25629C5.49297 0.884705 6.46052 0.693911 7.43749 0.694828V0.694828Z" fill="#330000"/>
<path d="M20.3525 25.1424H13.8425L12.5125 29.2344C12.4977 29.309 12.4553 29.3754 12.3938 29.4205C12.3323 29.4656 12.256 29.4862 12.18 29.4782H8.89002C8.69752 29.4782 8.64502 29.3738 8.69752 29.1648L14.3325 13.023C14.385 12.8489 14.4375 12.6573 14.5075 12.4484C14.5779 12.0752 14.6131 11.6963 14.6125 11.3165C14.6073 11.2729 14.6188 11.229 14.6447 11.1934C14.6707 11.1579 14.7092 11.1335 14.7525 11.125H19.285C19.425 11.125 19.495 11.1772 19.5125 11.2643L25.9 29.1996C25.9525 29.3912 25.9 29.4782 25.725 29.4782H22.0675C22.0057 29.4842 21.9437 29.4682 21.8925 29.4332C21.8413 29.3981 21.8041 29.3463 21.7875 29.2867L20.3525 25.1424ZM14.8575 21.6076H19.3025C19.1975 21.2419 19.0575 20.8066 18.9 20.3539C18.7425 19.9011 18.585 19.3787 18.4275 18.8563C18.27 18.334 18.095 17.7942 17.92 17.2544C17.745 16.7146 17.5875 16.2096 17.4475 15.7046C17.3075 15.1996 17.185 14.7643 17.0625 14.3464H17.0275C16.8702 15.1053 16.6716 15.8552 16.4325 16.5927C16.17 17.4285 15.9075 18.2991 15.6275 19.1698C15.3825 20.0578 15.12 20.8762 14.8575 21.6076V21.6076Z" fill="#FF9A00"/>
<path d="M29.715 14.1026C29.4277 14.1089 29.1421 14.0582 28.8747 13.9536C28.6073 13.849 28.3635 13.6925 28.1575 13.4932C27.7566 13.057 27.543 12.482 27.5625 11.8912C27.5522 11.6033 27.6029 11.3165 27.7115 11.0495C27.82 10.7825 27.9839 10.5412 28.1925 10.3415C28.6131 9.94586 29.1712 9.72747 29.75 9.732C30.4325 9.732 30.9575 9.94096 31.3425 10.3415C31.7302 10.7637 31.9373 11.3196 31.92 11.8912C31.9307 12.1854 31.882 12.4788 31.7768 12.7539C31.6716 13.0291 31.512 13.2804 31.3075 13.4932C31.1013 13.7022 30.8524 13.8647 30.5777 13.9699C30.303 14.075 30.0088 14.1203 29.715 14.1026V14.1026ZM27.755 29.2171V15.8091C27.755 15.635 27.825 15.5653 27.9825 15.5653H31.4475C31.605 15.5653 31.675 15.6524 31.675 15.8091V29.2171C31.675 29.4086 31.605 29.4957 31.4475 29.4957H28.0175C27.9807 29.4987 27.9437 29.4934 27.9093 29.4802C27.8749 29.467 27.8439 29.4462 27.8186 29.4195C27.7934 29.3927 27.7746 29.3606 27.7635 29.3255C27.7525 29.2905 27.7496 29.2534 27.755 29.2171V29.2171Z" fill="#FF9A00"/>
</svg>
