<svg width="40" height="41" viewBox="0 0 40 41" fill="none" xmlns="http://www.w3.org/2000/svg">
<path d="M20.0001 39.1247C30.4842 39.1247 38.9832 30.6257 38.9832 20.1417C38.9832 9.65769 30.4842 1.15869 20.0001 1.15869C9.51612 1.15869 1.01712 9.65769 1.01712 20.1417C1.01712 30.6257 9.51612 39.1247 20.0001 39.1247Z" fill="white"/>
<path d="M20 0.141602C8.9543 0.141602 0 9.0959 0 20.1416C0 31.1874 8.9543 40.1416 20 40.1416C31.0458 40.1416 40 31.1874 40 20.1416C40 9.0959 31.0458 0.141602 20 0.141602ZM20 2.1755C29.9224 2.1755 37.9661 10.2192 37.9661 20.1416C37.9661 30.064 29.9224 38.1077 20 38.1077C10.0776 38.1077 2.0339 30.064 2.0339 20.1416C2.0339 10.2192 10.0776 2.1755 20 2.1755Z" fill="#4000BF"/>
<path d="M20.2258 5.9043C28.089 5.9043 34.4632 12.2785 34.4632 20.1416C34.4632 28.0046 28.089 34.3788 20.2258 34.3788C12.3628 34.3788 5.98859 28.0046 5.98859 20.1416C5.98859 18.22 6.36931 16.3872 7.05945 14.7146C8.06714 16.0868 9.69219 16.9777 11.5253 16.9777C14.5832 16.9777 17.062 14.4988 17.062 11.441C17.062 9.6079 16.1712 7.98285 14.7988 6.97517C16.4715 6.28502 18.3042 5.9043 20.2258 5.9043Z" fill="url(#paint0_linear_138_21563)"/>
<defs>
<linearGradient id="paint0_linear_138_21563" x1="20.2258" y1="34.3788" x2="20.2258" y2="5.9043" gradientUnits="userSpaceOnUse">
<stop stop-color="#7400E1"/>
<stop offset="1" stop-color="#4000BF"/>
</linearGradient>
</defs>
</svg>
