<svg width="38" height="43" viewBox="0 0 38 43" fill="none" xmlns="http://www.w3.org/2000/svg">
<path d="M36.8505 21.515C36.8505 18.9981 35.1203 16.8807 32.7973 16.2758L38 0.933594H12.2159L17.4309 16.3242C15.1802 16.9777 13.5228 19.0587 13.5228 21.5269C13.5228 23.3419 14.4301 24.9511 15.8094 25.9433C15.2651 26.7177 14.6359 27.4317 13.9219 28.1091C12.5789 29.3675 11.0907 30.3354 9.48145 30.9767C8.02952 29.9966 7.40034 28.2665 7.96902 26.7177C10.1832 26.0402 11.7925 23.9711 11.7925 21.539C11.7925 18.5505 9.36046 16.1305 6.38399 16.1305C3.39539 16.1305 0.963385 18.5626 0.963385 21.5511C0.963385 23.0272 1.56836 24.3825 2.53632 25.3504C2.45163 25.5199 2.36694 25.6892 2.28223 25.8707C1.47157 27.5405 0.552008 29.4281 0.201124 31.5454C-0.500664 35.7802 0.648797 39.1802 3.41959 41.1041C4.98043 42.1808 6.69857 42.7254 8.54978 42.7254C11.732 42.7254 14.9625 41.1283 18.0841 39.5795C20.3106 38.4785 22.6093 37.329 24.872 36.7723C25.707 36.5667 26.5781 36.4457 27.4977 36.3126C29.361 36.0464 31.2849 35.7681 33.0151 34.7638C35.0357 33.5903 36.415 31.6301 36.8144 29.3796C37.1167 27.6494 36.8144 25.9071 36.04 24.3825C36.5603 23.5475 36.8505 22.5675 36.8505 21.515ZM34.4912 21.515C34.4912 23.1967 33.1239 24.5639 31.442 24.5639C29.7603 24.5639 28.3931 23.1967 28.3931 21.515C28.3931 20.9704 28.5381 20.4501 28.7922 20.0026C28.8892 19.8331 29.0102 19.6636 29.1312 19.5184C29.2521 19.3734 29.3974 19.2403 29.5545 19.1193L29.5666 19.1072C29.6634 19.0344 29.7725 18.9619 29.8813 18.8892C29.8813 18.8892 29.8934 18.8892 29.8934 18.8771C29.9417 18.8531 29.9902 18.8167 30.0385 18.7925C30.0506 18.7925 30.0627 18.7804 30.0748 18.7804C30.1233 18.7561 30.1837 18.7321 30.2443 18.7078C30.3047 18.6836 30.3653 18.6594 30.4135 18.6351C30.4257 18.6351 30.4378 18.623 30.4499 18.623C30.4984 18.6111 30.5466 18.5869 30.5951 18.5747C30.6072 18.5747 30.6315 18.5626 30.6436 18.5626C30.704 18.5505 30.7525 18.5384 30.8129 18.5263H30.825L31.0066 18.4901C31.0187 18.4901 31.0427 18.4901 31.0548 18.478C31.1033 18.478 31.1518 18.4659 31.2001 18.4659H31.2607C31.321 18.4659 31.3816 18.4537 31.4542 18.4537H31.6115C31.66 18.4537 31.6961 18.4537 31.7446 18.4659H31.7688C31.8656 18.478 31.9623 18.4901 32.0591 18.5141C33.4384 18.8046 34.4912 20.0387 34.4912 21.515ZM15.5917 3.3535H34.6243L30.2564 16.2394C30.0748 16.2758 29.8934 16.3364 29.7119 16.3968L25.1141 7.01967L20.5041 16.3364C20.3227 16.2758 20.129 16.2394 19.9355 16.2033L15.5917 3.3535ZM24.2428 20.4623C24.0129 19.3249 23.4322 18.3085 22.6093 17.5584L25.1141 12.5007L27.6427 17.6672C26.8926 18.4174 26.3482 19.3734 26.1303 20.4623H24.2428ZM18.1811 18.5505C18.2415 18.5384 18.29 18.5263 18.3503 18.5141H18.3867C18.4352 18.502 18.4835 18.502 18.5319 18.4901H18.5802C18.6287 18.4901 18.665 18.478 18.7133 18.478H19.1853C19.2336 18.478 19.27 18.4901 19.3063 18.4901C19.3306 18.4901 19.3425 18.4901 19.3667 18.502C19.4152 18.5141 19.4516 18.5141 19.4998 18.5263C19.512 18.5263 19.5241 18.5263 19.5483 18.5384C19.6087 18.5505 19.6693 18.5626 19.7176 18.5747H19.7297C19.7782 18.5869 19.8266 18.599 19.8749 18.623C19.887 18.623 19.8991 18.6351 19.9234 18.6351C19.9597 18.6472 20.008 18.6594 20.0444 18.6836C20.0565 18.6836 20.0686 18.6957 20.0807 18.6957C20.129 18.72 20.1775 18.7321 20.2258 18.7561H20.2379C20.2985 18.7804 20.3467 18.8046 20.3952 18.8409H20.4073C20.4558 18.8652 20.5041 18.9013 20.5526 18.9256C20.5647 18.9256 20.5647 18.9377 20.5768 18.9377C20.6251 18.9619 20.6614 18.9981 20.7099 19.0223L20.7218 19.0344C20.8671 19.1433 21.0002 19.2643 21.1333 19.3853L21.1454 19.3974C21.2664 19.5305 21.3874 19.6757 21.4841 19.8331C21.7988 20.317 21.9802 20.8856 21.9802 21.5029C21.9802 23.1846 20.613 24.5518 18.9313 24.5518C17.2493 24.5518 15.8821 23.1846 15.8821 21.5029C15.87 20.0872 16.85 18.8892 18.1811 18.5505ZM6.27508 18.4659C7.95692 18.4659 9.32416 19.8331 9.32416 21.515C9.32416 23.1967 7.95692 24.5639 6.27508 24.5639C4.59325 24.5639 3.22599 23.1967 3.22599 21.515C3.22599 19.8331 4.59325 18.4659 6.27508 18.4659ZM34.4187 28.956C34.1524 30.5048 33.1965 31.8599 31.7929 32.6707C30.4741 33.433 28.8528 33.6749 27.1467 33.9169C26.2151 34.05 25.2351 34.1952 24.2913 34.4251C21.7746 35.0422 19.3546 36.252 17.0074 37.4136C14.0067 38.9018 11.1754 40.3054 8.54978 40.3054C7.18254 40.3054 5.96049 39.9182 4.79893 39.1077C2.13704 37.2684 2.27013 33.8202 2.58472 31.9326C2.87511 30.1661 3.68578 28.5084 4.46014 26.9235C4.50856 26.8265 4.54486 26.7419 4.59325 26.6451C4.85944 26.7419 5.13773 26.8144 5.42812 26.8629C4.96833 29.4281 6.27508 32.0779 8.81597 33.3845L9.27577 33.6265L9.77183 33.4451C11.8893 32.6949 13.8494 31.4727 15.5796 29.8393C16.5598 28.9199 17.3946 27.9277 18.0963 26.8508C18.3746 26.8992 18.6529 26.9114 18.9313 26.9114C21.448 26.9114 23.5653 25.181 24.1703 22.858H26.203C26.808 25.1931 28.9253 26.9114 31.442 26.9114C32.4463 26.9114 33.378 26.633 34.1767 26.1612C34.4912 27.0685 34.5879 28.0124 34.4187 28.956Z" fill="#99424F"/>
</svg>
