<svg width="40" height="38" viewBox="0 0 40 38" fill="none" xmlns="http://www.w3.org/2000/svg">
<path d="M9.53987 37.3278V12.5943H1.32614V37.3278H9.54073H9.53987ZM5.43472 9.21797C8.29842 9.21797 10.0813 7.31873 10.0813 4.94521C10.0277 2.51762 8.29842 0.671387 5.48918 0.671387C2.67801 0.671387 0.841995 2.51762 0.841995 4.945C0.841995 7.31851 2.62419 9.21775 5.3809 9.21775H5.43408L5.43472 9.21797ZM14.0863 37.3278H22.2994V23.517C22.2994 22.7788 22.353 22.0386 22.57 21.5113C23.1634 20.0338 24.5149 18.5043 26.7845 18.5043C29.7558 18.5043 30.9451 20.7722 30.9451 24.0975V37.3278H39.158V23.1464C39.158 15.5496 35.1065 12.0145 29.7026 12.0145C25.2722 12.0145 23.3264 14.4929 22.2453 16.181H22.3V12.5952H14.0867C14.1939 14.9155 14.0861 37.3287 14.0861 37.3287L14.0863 37.3278Z" fill="white"/>
</svg>
