<svg width="34" height="36" viewBox="0 0 34 36" fill="none" xmlns="http://www.w3.org/2000/svg">
<path d="M15.5406 0.585367C16.4245 0.0794389 17.5756 0.0771928 18.4586 0.585367C22.9008 3.09544 27.3445 5.60167 31.786 8.11327C32.6215 8.58383 33.1802 9.51357 33.1717 10.4762V25.578C33.178 26.5805 32.564 27.5325 31.6827 27.9923C27.255 30.4887 22.8295 32.988 18.4025 35.4844C17.5006 36.0001 16.3264 35.9604 15.4524 35.4023C14.125 34.6328 12.7953 33.867 11.4678 33.0983C11.1965 32.9366 10.8907 32.8079 10.6992 32.5449C10.8685 32.3167 11.1713 32.2883 11.4173 32.1885C11.9713 32.0123 12.4804 31.7294 12.9892 31.4551C13.1181 31.367 13.2751 31.4008 13.3986 31.4795C14.5336 32.1303 15.6588 32.8002 16.7977 33.4447C17.0406 33.5851 17.2866 33.3987 17.4944 33.283C21.8392 30.8272 26.1894 28.381 30.5337 25.9245C30.6947 25.847 30.7837 25.6761 30.7706 25.4999C30.7736 20.518 30.7713 15.5355 30.7722 10.5536C30.7905 10.3536 30.6748 10.1696 30.4938 10.0877C26.0816 7.60285 21.6714 5.11423 17.2599 2.62874C17.1034 2.52112 16.8969 2.52085 16.7402 2.62793C12.3285 5.11423 7.91931 7.60518 3.50773 10.0899C3.32747 10.1719 3.2065 10.3528 3.22796 10.5536C3.22871 15.5355 3.22796 20.518 3.22796 25.5006C3.21229 25.6769 3.30802 25.8441 3.46787 25.92C4.64511 26.5875 5.8239 27.2504 7.0019 27.9158C7.66555 28.2728 8.48038 28.4852 9.21157 28.2115C9.85679 27.9801 10.3091 27.3215 10.2968 26.6366C10.3029 21.6838 10.2937 16.7304 10.3013 11.7784C10.2853 11.5585 10.4938 11.3768 10.7076 11.3975C11.2732 11.3937 11.8396 11.3899 12.4052 11.3991C12.6414 11.3937 12.8038 11.6305 12.7747 11.852C12.7723 16.8361 12.7808 21.8202 12.7709 26.8042C12.7723 28.1326 12.2266 29.578 10.998 30.228C9.48437 31.012 7.6135 30.8457 6.11814 30.0939C4.8236 29.4478 3.58821 28.6852 2.31665 27.993C1.433 27.5357 0.822048 26.58 0.828265 25.5782V10.4762C0.818993 9.49364 1.40001 8.54703 2.26142 8.08338C6.68836 5.58506 11.1146 3.08477 15.5406 0.585367Z" fill="#81CD39"/>
<path d="M19.4034 11.0463C21.3342 10.922 23.4011 10.9727 25.1385 11.9238C26.4838 12.6528 27.2295 14.1826 27.2532 15.677C27.2157 15.8784 27.0049 15.9897 26.8125 15.9758C26.2524 15.9751 25.6919 15.9836 25.1319 15.9721C24.8941 15.9812 24.7561 15.7622 24.7263 15.5521C24.5653 14.837 24.1752 14.1288 23.5023 13.7838C22.4691 13.2667 21.2713 13.2927 20.1446 13.3035C19.3222 13.347 18.4378 13.4183 17.741 13.9019C17.206 14.2683 17.0436 15.0079 17.2344 15.6035C17.4145 16.0312 17.9081 16.1692 18.3122 16.2964C20.6389 16.905 23.1046 16.8443 25.387 17.6451C26.332 17.9716 27.2563 18.6065 27.5797 19.5958C28.0029 20.9219 27.8175 22.5068 26.8739 23.5712C26.1088 24.4472 24.9946 24.9241 23.8832 25.183C22.4047 25.5128 20.8704 25.5212 19.3689 25.3748C17.9571 25.2138 16.4878 24.8429 15.398 23.881C14.466 23.0717 14.0108 21.8107 14.0559 20.5938C14.0667 20.3882 14.2714 20.2449 14.4683 20.2617C15.0323 20.2573 15.5966 20.2556 16.1606 20.2626C16.3861 20.2465 16.553 20.4413 16.5647 20.6536C16.6686 21.3348 16.9246 22.05 17.5189 22.4538C18.6653 23.1935 20.104 23.1429 21.4168 23.1635C22.5045 23.1154 23.7254 23.1008 24.6129 22.3819C25.0812 21.9718 25.2199 21.2858 25.0934 20.6957C24.9563 20.1974 24.435 19.9653 23.9874 19.8134C21.6905 19.087 19.1971 19.3506 16.9225 18.5288C15.9989 18.2025 15.1058 17.5855 14.7511 16.6367C14.2561 15.2939 14.4829 13.6329 15.5252 12.6044C16.5415 11.5812 18.0085 11.1872 19.4034 11.0462V11.0463Z" fill="#81CD39"/>
</svg>
