<svg width="44" height="47" viewBox="0 0 44 47" fill="none" xmlns="http://www.w3.org/2000/svg">
<path fill-rule="evenodd" clip-rule="evenodd" d="M15.7251 1.5523C8.55527 2.10649 2.45921 2.5914 2.18211 2.62604C1.38547 2.79922 0.658098 3.31877 0.31173 4.04614L0 4.6696L0.0346367 19.7019L0.0692734 34.7343L0.519551 35.6695C0.796644 36.189 2.52848 38.6136 4.4335 41.0728C8.2089 45.9912 8.48599 46.2337 9.9061 46.4068C10.3217 46.4415 13.4737 46.3029 16.8334 46.0951C20.2278 45.8873 25.7004 45.5409 28.9563 45.3677C42.9149 44.5018 42.1875 44.5711 43.0188 43.8784C44.0233 43.0471 43.9194 44.4326 43.9886 26.1444C44.0233 10.6618 43.9886 9.62266 43.7462 9.17238C43.5037 8.61819 43.0188 8.27182 36.6456 3.80369C32.3853 0.790293 32.0736 0.651746 30.1686 0.617109C29.3719 0.582473 22.8602 1.03275 15.7251 1.5523Z" fill="white"/>
<path fill-rule="evenodd" clip-rule="evenodd" d="M15.7251 1.5523C8.55527 2.10649 2.45921 2.5914 2.18211 2.62604C1.38547 2.79922 0.658098 3.31877 0.31173 4.04614L0 4.6696L0.0346367 19.7019L0.0692734 34.7343L0.519551 35.6695C0.796644 36.189 2.52848 38.6136 4.4335 41.0728C8.2089 45.9912 8.48599 46.2337 9.9061 46.4068C10.3217 46.4415 13.4737 46.3029 16.8334 46.0951C20.2278 45.8873 25.7004 45.5409 28.9563 45.3677C42.9149 44.5018 42.1875 44.5711 43.0188 43.8784C44.0233 43.0471 43.9194 44.4326 43.9886 26.1444C44.0233 10.6618 43.9886 9.62266 43.7462 9.17238C43.5037 8.61819 43.0188 8.27182 36.6456 3.80369C32.3853 0.790293 32.0736 0.651746 30.1686 0.617109C29.3719 0.582473 22.8602 1.03275 15.7251 1.5523ZM31.8311 3.52659C32.4546 3.80369 36.8535 6.85172 37.4769 7.44054C37.6501 7.61373 37.7194 7.78691 37.6155 7.85618C37.4423 8.02937 10.1832 9.65729 9.38655 9.51874C9.04018 9.48411 8.52063 9.27629 8.2089 9.06847C6.96198 8.20255 3.87931 5.67407 3.87931 5.50089C3.87931 5.01597 3.7754 5.01597 15.8983 4.11542C18.2189 3.97687 22.0636 3.69978 24.3842 3.49196C29.4066 3.11095 30.8959 3.11095 31.8311 3.52659ZM40.4903 11.3545C40.6981 11.5623 40.8713 11.9433 40.9406 12.3243C40.9752 12.6707 41.0099 19.1131 40.9752 26.5946C40.9406 39.4102 40.906 40.2415 40.6635 40.5879C40.525 40.8303 40.2479 41.0728 40.0054 41.1421C39.4166 41.3845 10.8759 43.0124 10.2871 42.8393C10.01 42.77 9.62901 42.5275 9.45582 42.3197L9.10946 41.9733L9.07482 28.1187C9.04018 18.3857 9.07482 14.0908 9.17873 13.7098C9.248 13.4327 9.49046 13.0863 9.66364 12.9478C9.9061 12.7746 11.6033 12.636 17.4223 12.2897C21.5094 12.0819 27.8479 11.7009 31.4501 11.4584C40.1093 10.9389 40.0747 10.9389 40.4903 11.3545Z" fill="black"/>
<path fill-rule="evenodd" clip-rule="evenodd" d="M32.8364 16.0992C31.2777 16.2031 29.8923 16.3416 29.7537 16.4455C29.2688 16.688 28.9917 17.1036 28.9224 17.5539C28.8878 18.0042 29.0263 18.0735 30.585 18.2813L31.2431 18.3505V24.4812C31.2431 28.1181 31.2084 30.508 31.1045 30.4388C31.0353 30.3695 29.0263 27.2522 26.6018 23.5807C24.1772 19.8399 22.1683 16.7919 22.1336 16.7919C22.099 16.7573 20.5403 16.8265 18.6353 16.9651C16.3147 17.1036 15.0331 17.2768 14.7906 17.4154C14.375 17.6232 13.8901 18.3852 13.8901 18.8701C13.8901 19.1818 14.4443 19.355 15.5873 19.355H16.2108V36.9505L15.2063 37.2622C14.4789 37.47 14.2018 37.6086 14.0633 37.9203C13.8555 38.4052 13.8555 38.8208 14.0979 38.8208C14.1672 38.8208 15.7951 38.7516 17.6655 38.613C21.337 38.4052 21.7526 38.3013 22.1336 37.5393C22.2722 37.3315 22.3761 37.089 22.3761 36.9851C22.3761 36.9505 21.8565 36.7773 21.2677 36.6387C20.6443 36.5002 20.0208 36.327 19.8822 36.327C19.6398 36.2577 19.6398 35.8075 19.6398 29.6421V23.0265L24.004 29.8499C28.5761 37.0197 29.1302 37.851 29.8576 38.1974C30.7235 38.6477 32.9403 38.3359 34.0487 37.6086L34.395 37.4007L34.4297 27.6332L34.4643 17.831L35.2263 17.6925C36.1269 17.5193 36.5425 17.1036 36.5425 16.3763C36.5425 15.926 36.5079 15.8913 36.0922 15.926C35.8498 15.926 34.3604 16.0299 32.8364 16.0992Z" fill="black"/>
</svg>
