<svg width="36" height="19" viewBox="0 0 36 19" fill="none" xmlns="http://www.w3.org/2000/svg">
<path d="M3.51359 4.48486H8.61816C10.1164 4.49744 11.2021 4.92941 11.8752 5.78005C12.5483 6.63069 12.7704 7.79255 12.5418 9.26563C12.4531 9.93874 12.2561 10.5989 11.9514 11.2465C11.6592 11.8941 11.2531 12.4781 10.7324 12.9988C10.0973 13.659 9.41813 14.078 8.69434 14.2559C7.97056 14.4338 7.22127 14.5226 6.44681 14.5226H4.16119L3.4374 18.1415H0.789886L3.51359 4.48486ZM5.74208 6.65621L4.59926 12.3703C4.67545 12.3829 4.75164 12.3893 4.82783 12.3893C4.91659 12.3893 5.00572 12.3893 5.09448 12.3893C6.31348 12.4019 7.32944 12.2815 8.14199 12.0274C8.95453 11.7608 9.50078 10.8339 9.78002 9.24659C10.0086 7.9133 9.78002 7.14496 9.09433 6.94191C8.42122 6.73886 7.57705 6.64363 6.56109 6.65621C6.40872 6.66879 6.26281 6.67526 6.12302 6.67526C5.99616 6.67526 5.86283 6.67526 5.72303 6.67526L5.74208 6.65621Z" fill="white"/>
<path d="M15.5577 0.847656H18.1862L17.4434 4.48561H19.8052C21.1004 4.51113 22.0653 4.77778 22.7003 5.28558C23.3479 5.79337 23.5384 6.75866 23.2717 8.1807L21.9956 14.5233H19.329L20.548 8.46641C20.6749 7.83139 20.6368 7.38073 20.4337 7.11408C20.2307 6.84742 19.7926 6.71409 19.1195 6.71409L17.0053 6.69505L15.4434 14.5233H12.815L15.5577 0.847656Z" fill="white"/>
<path d="M26.095 4.48486H31.1995C32.6978 4.49744 33.7834 4.92941 34.4565 5.78005C35.1296 6.63069 35.3517 7.79255 35.1232 9.26563C35.0344 9.93874 34.8375 10.5989 34.5327 11.2465C34.2406 11.8941 33.8345 12.4781 33.3137 12.9988C32.6787 13.659 31.9995 14.078 31.2757 14.2559C30.5519 14.4338 29.8026 14.5226 29.0282 14.5226H26.7425L26.0188 18.1415H23.3712L26.095 4.48486ZM28.3234 6.65621L27.1806 12.3703C27.2568 12.3829 27.333 12.3893 27.4092 12.3893C27.498 12.3893 27.5871 12.3893 27.6758 12.3893C28.8948 12.4019 29.9108 12.2815 30.7233 12.0274C31.5359 11.7608 32.0821 10.8339 32.3614 9.24659C32.5899 7.9133 32.3614 7.14496 31.6757 6.94191C31.0026 6.73886 30.1584 6.64363 29.1425 6.65621C28.9901 6.66879 28.8442 6.67526 28.7044 6.67526C28.5775 6.67526 28.4442 6.67526 28.3044 6.67526L28.3234 6.65621Z" fill="white"/>
</svg>
