<svg width="44" height="44" viewBox="0 0 44 44" fill="none" xmlns="http://www.w3.org/2000/svg">
<path d="M32.279 8.63721H34.3348C34.9104 8.63721 35.3627 9.08948 35.3627 9.6651C35.3627 10.2407 34.9104 10.693 34.3348 10.693H32.279C31.7034 10.693 31.2511 10.2407 31.2511 9.6651C31.2511 9.08948 31.7034 8.63721 32.279 8.63721Z" fill="#56B3B4"/>
<path d="M1.4422 41.5298H11.7211C12.2967 41.5298 12.749 41.9821 12.749 42.5577C12.749 43.1333 12.2967 43.5856 11.7211 43.5856H1.4422C0.866578 43.5856 0.414307 43.1333 0.414307 42.5577C0.414307 41.9821 0.866578 41.5298 1.4422 41.5298Z" fill="#EA5E5E"/>
<path d="M26.1116 25.0835H32.279C32.8546 25.0835 33.3069 25.5358 33.3069 26.1114C33.3069 26.687 32.8546 27.1393 32.279 27.1393H26.1116C25.536 27.1393 25.0837 26.687 25.0837 26.1114C25.0837 25.5358 25.536 25.0835 26.1116 25.0835Z" fill="#BF85BF"/>
<path d="M13.7768 25.0835H21.9999C22.5755 25.0835 23.0278 25.5358 23.0278 26.1114C23.0278 26.687 22.5755 27.1393 21.9999 27.1393H13.7768C13.2012 27.1393 12.7489 26.687 12.7489 26.1114C12.7489 25.5358 13.2012 25.0835 13.7768 25.0835Z" fill="#EA5E5E"/>
<path d="M1.4422 25.0835H9.66532C10.2409 25.0835 10.6932 25.5358 10.6932 26.1114C10.6932 26.687 10.2409 27.1393 9.66532 27.1393H1.4422C0.866578 27.1393 0.414307 26.687 0.414307 26.1114C0.414307 25.5358 0.866578 25.0835 1.4422 25.0835Z" fill="#56B3B4"/>
<path d="M1.4422 33.3066H11.7211C12.2967 33.3066 12.749 33.7589 12.749 34.3345C12.749 34.9101 12.2967 35.3624 11.7211 35.3624H1.4422C0.866578 35.3624 0.414307 34.9101 0.414307 34.3345C0.414307 33.7589 0.866578 33.3066 1.4422 33.3066Z" fill="#BF85BF"/>
<path d="M1.4422 16.8604H11.7211C12.2967 16.8604 12.749 17.3126 12.749 17.8882C12.749 18.4639 12.2967 18.9161 11.7211 18.9161H1.4422C0.866578 18.9161 0.414307 18.4639 0.414307 17.8882C0.414307 17.3126 0.866578 16.8604 1.4422 16.8604Z" fill="#BF85BF"/>
<path d="M11.721 4.52539H32.2788C32.8544 4.52539 33.3067 4.97766 33.3067 5.55328C33.3067 6.1289 32.8544 6.58117 32.2788 6.58117H11.721C11.1454 6.58117 10.6931 6.1289 10.6931 5.55328C10.6931 4.97766 11.1454 4.52539 11.721 4.52539Z" fill="#F7BA3E"/>
<path d="M1.4422 4.52539H7.60954C8.18516 4.52539 8.63743 4.97766 8.63743 5.55328C8.63743 6.1289 8.18516 6.58117 7.60954 6.58117H1.4422C0.866578 6.58117 0.414307 6.1289 0.414307 5.55328C0.414307 4.97766 0.866578 4.52539 1.4422 4.52539Z" fill="#EA5E5E"/>
<path d="M9.66534 37.418H11.7211C12.2967 37.418 12.749 37.8702 12.749 38.4459C12.749 39.0215 12.2967 39.4737 11.7211 39.4737H9.66534C9.08972 39.4737 8.63745 39.0215 8.63745 38.4459C8.63745 37.8702 9.08972 37.418 9.66534 37.418Z" fill="#F7BA3E"/>
<path d="M9.66534 12.7485H11.7211C12.2967 12.7485 12.749 13.2008 12.749 13.7764C12.749 14.352 12.2967 14.8043 11.7211 14.8043H9.66534C9.08972 14.8043 8.63745 14.352 8.63745 13.7764C8.63745 13.2008 9.08972 12.7485 9.66534 12.7485Z" fill="#56B3B4"/>
<path d="M1.4422 37.418H5.55376C6.12938 37.418 6.58165 37.8702 6.58165 38.4459C6.58165 39.0215 6.12938 39.4737 5.55376 39.4737H1.4422C0.866578 39.4737 0.414307 39.0215 0.414307 38.4459C0.414307 37.8702 0.866578 37.418 1.4422 37.418Z" fill="#56B3B4"/>
<path d="M1.4422 12.7485H5.55376C6.12938 12.7485 6.58165 13.2008 6.58165 13.7764C6.58165 14.352 6.12938 14.8043 5.55376 14.8043H1.4422C0.866578 14.8043 0.414307 14.352 0.414307 13.7764C0.414307 13.2008 0.866578 12.7485 1.4422 12.7485Z" fill="#F7BA3E"/>
<path opacity="0.5" d="M28.1673 37.418H30.2231C30.7987 37.418 31.251 37.8702 31.251 38.4459C31.251 39.0215 30.7987 39.4737 30.2231 39.4737H28.1673C27.5917 39.4737 27.1394 39.0215 27.1394 38.4459C27.1394 37.8702 27.5917 37.418 28.1673 37.418Z" fill="#4D616E"/>
<path opacity="0.5" d="M15.8327 37.418H24.0558C24.6314 37.418 25.0837 37.8702 25.0837 38.4459C25.0837 39.0215 24.6314 39.4737 24.0558 39.4737H15.8327C15.2571 39.4737 14.8048 39.0215 14.8048 38.4459C14.8048 37.8702 15.2571 37.418 15.8327 37.418Z" fill="#4D616E"/>
<path opacity="0.5" d="M34.3348 37.418H42.5579C43.1335 37.418 43.5858 37.8702 43.5858 38.4459C43.5858 39.0215 43.1335 39.4737 42.5579 39.4737H34.3348C33.7592 39.4737 33.3069 39.0215 33.3069 38.4459C33.3069 37.8702 33.7592 37.418 34.3348 37.418Z" fill="#4D616E"/>
<path d="M17.8885 20.9717H34.3347C34.9103 20.9717 35.3626 21.424 35.3626 21.9996C35.3626 22.5752 34.9103 23.0275 34.3347 23.0275H17.8885C17.3129 23.0275 16.8606 22.5752 16.8606 21.9996C16.8606 21.424 17.3129 20.9717 17.8885 20.9717Z" fill="#56B3B4"/>
<path d="M7.60956 20.9717H13.7769C14.3525 20.9717 14.8048 21.424 14.8048 21.9996C14.8048 22.5752 14.3525 23.0275 13.7769 23.0275H7.60956C7.03394 23.0275 6.58167 22.5752 6.58167 21.9996C6.58167 21.424 7.03394 20.9717 7.60956 20.9717Z" fill="#F7BA3E"/>
<path d="M1.4422 20.9717H3.49798C4.0736 20.9717 4.52587 21.424 4.52587 21.9996C4.52587 22.5752 4.0736 23.0275 3.49798 23.0275H1.4422C0.866578 23.0275 0.414307 22.5752 0.414307 21.9996C0.414307 21.424 0.866578 20.9717 1.4422 20.9717Z" fill="#EA5E5E"/>
<path d="M19.9441 8.63721H28.1673C28.7429 8.63721 29.1952 9.08948 29.1952 9.6651C29.1952 10.2407 28.7429 10.693 28.1673 10.693H19.9441C19.3685 10.693 18.9163 10.2407 18.9163 9.6651C18.9163 9.08948 19.3685 8.63721 19.9441 8.63721Z" fill="#BF85BF"/>
<path d="M1.4422 8.63721H15.8327C16.4083 8.63721 16.8606 9.08948 16.8606 9.6651C16.8606 10.2407 16.4083 10.693 15.8327 10.693H1.4422C0.866578 10.693 0.414307 10.2407 0.414307 9.6651C0.414307 9.08948 0.866578 8.63721 1.4422 8.63721Z" fill="#56B3B4"/>
<path d="M7.60956 29.1948H26.1116C26.6872 29.1948 27.1395 29.6471 27.1395 30.2227C27.1395 30.7983 26.6872 31.2506 26.1116 31.2506H7.60956C7.03394 31.2506 6.58167 30.7983 6.58167 30.2227C6.58167 29.6471 7.03394 29.1948 7.60956 29.1948Z" fill="#F7BA3E"/>
<path d="M1.4422 29.1948H3.49798C4.0736 29.1948 4.52587 29.6471 4.52587 30.2227C4.52587 30.7983 4.0736 31.2506 3.49798 31.2506H1.4422C0.866578 31.2506 0.414307 30.7983 0.414307 30.2227C0.414307 29.6471 0.866578 29.1948 1.4422 29.1948Z" fill="#BF85BF"/>
<path d="M26.1116 12.7485H36.3905C36.9662 12.7485 37.4184 13.2008 37.4184 13.7764C37.4184 14.352 36.9662 14.8043 36.3905 14.8043H26.1116C25.536 14.8043 25.0837 14.352 25.0837 13.7764C25.0837 13.2008 25.536 12.7485 26.1116 12.7485Z" fill="#EA5E5E"/>
<path d="M26.1116 16.8604H36.3905C36.9662 16.8604 37.4184 17.3126 37.4184 17.8882C37.4184 18.4639 36.9662 18.9161 36.3905 18.9161H26.1116C25.536 18.9161 25.0837 18.4639 25.0837 17.8882C25.0837 17.3126 25.536 16.8604 26.1116 16.8604Z" fill="#F7BA3E"/>
<path d="M1.4422 0.414062H26.1116C26.6872 0.414062 27.1395 0.866334 27.1395 1.44195C27.1395 2.01757 26.6872 2.46984 26.1116 2.46984H1.4422C0.866578 2.46984 0.414307 2.01757 0.414307 1.44195C0.414307 0.866334 0.866578 0.414062 1.4422 0.414062Z" fill="#56B3B4"/>
<path opacity="0.5" d="M30.2231 0.414062H42.5578C43.1334 0.414062 43.5857 0.866334 43.5857 1.44195C43.5857 2.01757 43.1334 2.46984 42.5578 2.46984H30.2231C29.6475 2.46984 29.1952 2.01757 29.1952 1.44195C29.1952 0.866334 29.6475 0.414062 30.2231 0.414062Z" fill="#4D616E"/>
<path opacity="0.5" d="M30.2231 29.1948H34.3346C34.9103 29.1948 35.3625 29.6471 35.3625 30.2227C35.3625 30.7983 34.9103 31.2506 34.3346 31.2506H30.2231C29.6475 31.2506 29.1952 30.7983 29.1952 30.2227C29.1952 29.6471 29.6475 29.1948 30.2231 29.1948Z" fill="#4D616E"/>
<path opacity="0.5" d="M38.4462 29.1948H42.5578C43.1334 29.1948 43.5857 29.6471 43.5857 30.2227C43.5857 30.7983 43.1334 31.2506 42.5578 31.2506H38.4462C37.8706 31.2506 37.4183 30.7983 37.4183 30.2227C37.4183 29.6471 37.8706 29.1948 38.4462 29.1948Z" fill="#4D616E"/>
<path opacity="0.5" d="M36.3904 25.0835H42.5578C43.1334 25.0835 43.5857 25.5358 43.5857 26.1114C43.5857 26.687 43.1334 27.1393 42.5578 27.1393H36.3904C35.8148 27.1393 35.3625 26.687 35.3625 26.1114C35.3625 25.5358 35.8148 25.0835 36.3904 25.0835Z" fill="#4D616E"/>
<path opacity="0.5" d="M36.3904 4.52539H42.5578C43.1334 4.52539 43.5857 4.97766 43.5857 5.55328C43.5857 6.1289 43.1334 6.58117 42.5578 6.58117H36.3904C35.8148 6.58117 35.3625 6.1289 35.3625 5.55328C35.3625 4.97766 35.8148 4.52539 36.3904 4.52539Z" fill="#4D616E"/>
<path opacity="0.5" d="M38.4462 20.9717H42.5578C43.1334 20.9717 43.5857 21.424 43.5857 21.9996C43.5857 22.5752 43.1334 23.0275 42.5578 23.0275H38.4462C37.8706 23.0275 37.4183 22.5752 37.4183 21.9996C37.4183 21.424 37.8706 20.9717 38.4462 20.9717Z" fill="#4D616E"/>
<path opacity="0.5" d="M38.4462 8.63721H42.5578C43.1334 8.63721 43.5857 9.08948 43.5857 9.6651C43.5857 10.2407 43.1334 10.693 42.5578 10.693H38.4462C37.8706 10.693 37.4183 10.2407 37.4183 9.6651C37.4183 9.08948 37.8706 8.63721 38.4462 8.63721Z" fill="#4D616E"/>
<path opacity="0.5" d="M40.5021 12.7485H42.5579C43.1335 12.7485 43.5858 13.2008 43.5858 13.7764C43.5858 14.352 43.1335 14.8043 42.5579 14.8043H40.5021C39.9265 14.8043 39.4742 14.352 39.4742 13.7764C39.4742 13.2008 39.9265 12.7485 40.5021 12.7485Z" fill="#4D616E"/>
<path opacity="0.5" d="M40.5021 16.8604H42.5579C43.1335 16.8604 43.5858 17.3126 43.5858 17.8882C43.5858 18.4639 43.1335 18.9161 42.5579 18.9161H40.5021C39.9265 18.9161 39.4742 18.4639 39.4742 17.8882C39.4742 17.3126 39.9265 16.8604 40.5021 16.8604Z" fill="#4D616E"/>
<path opacity="0.5" d="M24.0558 33.3066H42.5579C43.1335 33.3066 43.5858 33.7589 43.5858 34.3345C43.5858 34.9101 43.1335 35.3624 42.5579 35.3624H24.0558C23.4802 35.3624 23.028 34.9101 23.028 34.3345C23.028 33.7589 23.4802 33.3066 24.0558 33.3066Z" fill="#4D616E"/>
<path opacity="0.5" d="M15.8327 33.3066H19.9443C20.5199 33.3066 20.9722 33.7589 20.9722 34.3345C20.9722 34.9101 20.5199 35.3624 19.9443 35.3624H15.8327C15.2571 35.3624 14.8048 34.9101 14.8048 34.3345C14.8048 33.7589 15.2571 33.3066 15.8327 33.3066Z" fill="#4D616E"/>
<path opacity="0.5" d="M32.279 41.5298H42.5579C43.1335 41.5298 43.5858 41.9821 43.5858 42.5577C43.5858 43.1333 43.1335 43.5856 42.5579 43.5856H32.279C31.7034 43.5856 31.2511 43.1333 31.2511 42.5577C31.2511 41.9821 31.7034 41.5298 32.279 41.5298Z" fill="#4D616E"/>
<path opacity="0.5" d="M15.8327 41.5298H28.1674C28.743 41.5298 29.1953 41.9821 29.1953 42.5577C29.1953 43.1333 28.743 43.5856 28.1674 43.5856H15.8327C15.2571 43.5856 14.8048 43.1333 14.8048 42.5577C14.8048 41.9821 15.2571 41.5298 15.8327 41.5298Z" fill="#4D616E"/>
<path opacity="0.5" d="M15.8327 12.7485H22C22.5757 12.7485 23.0279 13.2008 23.0279 13.7764C23.0279 14.352 22.5757 14.8043 22 14.8043H15.8327C15.2571 14.8043 14.8048 14.352 14.8048 13.7764C14.8048 13.2008 15.2571 12.7485 15.8327 12.7485Z" fill="#4D616E"/>
<path opacity="0.5" d="M15.8327 16.8604H22C22.5757 16.8604 23.0279 17.3126 23.0279 17.8882C23.0279 18.4639 22.5757 18.9161 22 18.9161H15.8327C15.2571 18.9161 14.8048 18.4639 14.8048 17.8882C14.8048 17.3126 15.2571 16.8604 15.8327 16.8604Z" fill="#4D616E"/>
</svg>
