<svg width="38" height="30" viewBox="0 0 38 30" fill="none" xmlns="http://www.w3.org/2000/svg">
<path d="M32.721 16.9038C31.3952 16.9106 30.2432 17.23 29.2783 17.7018C28.9244 17.0009 28.5704 16.3762 28.5078 15.918C28.4384 15.3836 28.3552 15.0574 28.4384 14.4188C28.5217 13.7803 28.8966 12.8711 28.8896 12.8018C28.8827 12.7322 28.8063 12.4061 28.0428 12.3991C27.2793 12.3923 26.62 12.5449 26.5436 12.7462C26.4672 12.9474 26.3216 13.4055 26.2244 13.8776C26.0925 14.5717 24.6973 17.0496 23.8992 18.3474C23.6423 17.8408 23.4203 17.3965 23.3716 17.0425C23.3022 16.5081 23.219 16.1819 23.3022 15.5433C23.3855 14.9048 23.7604 13.9955 23.7534 13.9261C23.7465 13.8567 23.6701 13.5304 22.9066 13.5236C22.1431 13.5166 21.4836 13.6692 21.4074 13.8706C21.331 14.0719 21.2477 14.5439 21.088 15.0019C20.9285 15.4601 19.0753 19.5969 18.5894 20.6656C18.3396 21.2139 18.1244 21.6512 17.9718 21.9496C17.9718 21.9496 17.9647 21.9706 17.944 22.0052C17.8121 22.262 17.7356 22.4008 17.7356 22.4008C17.7356 22.4008 17.7356 22.4008 17.7356 22.4078C17.6316 22.5953 17.5204 22.7686 17.4649 22.7686C17.4233 22.7686 17.347 22.269 17.4788 21.5888C17.7565 20.152 18.4158 17.917 18.409 17.8408C18.409 17.7992 18.5339 17.4104 17.9786 17.2091C17.4372 17.0077 17.2429 17.341 17.1942 17.341C17.1457 17.341 17.1109 17.4591 17.1109 17.4591C17.1109 17.4591 17.7149 14.9464 15.9589 14.9464C14.8621 14.9464 13.3491 16.1471 12.5995 17.23C12.1275 17.4868 11.121 18.0351 10.0452 18.625C9.63572 18.8541 9.21233 19.0832 8.81669 19.2984C8.78893 19.2706 8.76118 19.2358 8.7334 19.2081C6.60952 16.9384 2.68099 15.3352 2.84757 12.2881C2.91004 11.1775 3.29178 8.26237 10.3923 4.72253C16.2364 1.84208 20.8869 2.64027 21.692 4.41019C22.8441 6.93666 19.2002 11.6286 13.1617 12.3088C10.8573 12.5656 9.6496 11.6773 9.34421 11.3442C9.02492 10.997 8.97635 10.9763 8.85834 11.0457C8.66399 11.1497 8.78894 11.4621 8.85834 11.6425C9.0388 12.1145 9.78148 12.9474 11.0378 13.3569C12.1483 13.7179 14.8482 13.9192 18.1174 12.6559C21.7753 11.24 24.6349 7.30452 23.795 4.00762C22.9553 0.662141 17.4026 -0.441465 12.1483 1.42562C9.02492 2.53617 5.63779 4.28525 3.20155 6.56186C0.307224 9.26879 -0.150884 11.6217 0.036526 12.6073C0.709781 16.1055 5.53368 18.382 7.46322 20.0687C7.36606 20.1242 7.27583 20.1729 7.19948 20.2145C6.2347 20.6934 2.55605 22.616 1.63985 24.6498C0.598737 26.9541 1.80645 28.606 2.60464 28.828C5.08252 29.5153 7.62982 28.2797 8.99716 26.2391C10.3645 24.1985 10.1979 21.5472 9.56631 20.3326C9.55937 20.3187 9.55243 20.3048 9.53854 20.2909C9.78842 20.1451 10.0452 19.9925 10.2951 19.8467C10.7879 19.5552 11.2737 19.2845 11.6902 19.0623C11.4542 19.7079 11.2807 20.4782 11.1974 21.5888C11.0933 22.8937 11.6277 24.5872 12.3288 25.2536C12.6411 25.545 13.009 25.552 13.245 25.552C14.064 25.552 14.4319 24.8718 14.8414 24.0667C15.341 23.081 15.7923 21.9358 15.7923 21.9358C15.7923 21.9358 15.23 25.0315 16.7569 25.0315C17.3123 25.0315 17.8744 24.3097 18.1244 23.9418C18.1244 23.9487 18.1244 23.9487 18.1244 23.9487C18.1244 23.9487 18.1383 23.9279 18.166 23.8793C18.2216 23.789 18.2562 23.7334 18.2562 23.7334C18.2562 23.7334 18.2562 23.7266 18.2562 23.7196C18.4784 23.331 18.978 22.4494 19.7208 20.9848C20.6785 19.0971 21.6017 16.7372 21.6017 16.7372C21.6017 16.7372 21.685 17.3133 21.9696 18.271C22.1361 18.8334 22.4832 19.451 22.7608 20.048C22.5388 20.3603 22.4 20.5337 22.4 20.5337C22.4 20.5337 22.4 20.5337 22.4068 20.5407C22.2264 20.7767 22.0321 21.0335 21.8169 21.2833C21.0603 22.1858 20.158 23.22 20.0331 23.5184C19.8873 23.8724 19.9221 24.1291 20.1996 24.3374C20.401 24.4901 20.7618 24.5108 21.1297 24.4901C21.8099 24.4414 22.289 24.2749 22.5249 24.1707C22.8927 24.039 23.3232 23.8376 23.7256 23.5392C24.4684 22.9909 24.9195 22.2065 24.8779 21.1723C24.857 20.6031 24.6695 20.0341 24.4406 19.4995C24.51 19.4024 24.5724 19.3052 24.6418 19.2081C25.8149 17.4937 26.724 15.6127 26.724 15.6127C26.724 15.6127 26.8073 16.1888 27.0919 17.1467C27.2307 17.6324 27.5153 18.16 27.7653 18.6737C26.6617 19.5691 25.9815 20.6101 25.7385 21.2903C25.3012 22.5536 25.6414 23.1226 26.2868 23.2546C26.5784 23.3171 26.9947 23.1783 27.3003 23.0464C27.6888 22.9215 28.147 22.7063 28.5843 22.3869C29.3268 21.8386 30.0418 21.0751 30.0002 20.0409C29.9793 19.5691 29.8544 19.1039 29.6808 18.6528C30.6179 18.2642 31.8256 18.049 33.3665 18.2294C36.6704 18.6182 37.3228 20.6795 37.1977 21.5472C37.0728 22.4147 36.3788 22.8867 36.1497 23.0325C35.9208 23.1783 35.8444 23.2268 35.8653 23.331C35.893 23.4836 36.004 23.4766 36.1983 23.4489C36.4691 23.4004 37.9335 22.7479 37.996 21.1516C38.1002 19.1109 36.1567 16.8828 32.721 16.9038ZM7.23418 25.4965C6.13753 26.6902 4.61055 27.1415 3.95117 26.7598C3.2432 26.3501 3.52084 24.5872 4.86735 23.324C5.68638 22.5536 6.74138 21.8386 7.44241 21.4014C7.60204 21.3042 7.83804 21.1654 8.12262 20.9919C8.17119 20.9641 8.19897 20.9502 8.19897 20.9502C8.25448 20.9155 8.31001 20.8809 8.36554 20.8461C8.85834 22.6508 8.38636 24.2403 7.23418 25.4965ZM15.2161 20.0687C14.8344 20.9989 14.0363 23.3795 13.5503 23.2477C13.1339 23.1365 12.8771 21.332 13.4671 19.5482C13.7656 18.6528 14.3971 17.584 14.765 17.1674C15.3619 16.5011 16.0212 16.2791 16.1809 16.5498C16.3822 16.9038 15.4522 19.4856 15.2161 20.0687ZM21.803 23.22C21.6433 23.3032 21.4907 23.3587 21.4213 23.3171C21.3726 23.2894 21.4907 23.1783 21.4907 23.1783C21.4907 23.1783 22.3167 22.2898 22.6429 21.8873C22.8302 21.6512 23.0524 21.3736 23.2884 21.0613C23.2884 21.089 23.2884 21.1238 23.2884 21.1516C23.2884 22.2135 22.2612 22.9283 21.803 23.22ZM26.8837 22.0607C26.7657 21.9774 26.7866 21.6998 27.1822 20.8322C27.3349 20.4921 27.6959 19.9231 28.3135 19.3746C28.3829 19.5969 28.4316 19.8119 28.4246 20.0132C28.4177 21.3529 27.4598 21.8525 26.8837 22.0607Z" fill="#CD6799"/>
</svg>
