<svg width="46" height="46" viewBox="0 0 46 46" fill="none" xmlns="http://www.w3.org/2000/svg">
<path fill-rule="evenodd" clip-rule="evenodd" d="M23 0.0754395C10.4027 0.0754395 0.0958252 10.3915 0.0958252 23C0.0958252 35.6085 10.4027 45.9245 23 45.9245C35.5973 45.9245 45.9042 35.6085 45.9042 23C45.9042 10.3915 35.7118 0.0754395 23 0.0754395ZM33.5359 33.2014C33.0779 33.8891 32.2762 34.1184 31.5891 33.6599C26.2066 30.3358 19.4499 29.6481 11.4334 31.4821C10.6317 31.7113 9.94462 31.1382 9.71558 30.4505C9.48654 29.6481 10.0591 28.9604 10.7463 28.7311C19.4499 26.7825 27.0082 27.5849 32.9633 31.2528C33.765 31.5967 33.8795 32.5137 33.5359 33.2014ZM36.2844 26.8972C35.7118 27.6995 34.6811 28.0434 33.8795 27.4703C27.6954 23.6877 18.3047 22.5415 11.0898 24.8339C10.1737 25.0632 9.14298 24.6047 8.91394 23.6877C8.68489 22.7707 9.14298 21.7391 10.0591 21.5099C18.4192 18.9882 28.7261 20.249 35.8264 24.6047C36.5135 24.9486 36.857 26.0948 36.2844 26.8972ZM36.5135 20.4783C29.1841 16.1226 16.9304 15.6641 9.94462 17.842C8.79942 18.1858 7.65421 17.4981 7.31064 16.4665C6.96708 15.3203 7.65421 14.174 8.68489 13.8302C16.8159 11.4231 30.2148 11.8816 38.6894 16.925C39.7201 17.4981 40.0636 18.8736 39.491 19.9052C38.9184 20.7075 37.5442 21.0514 36.5135 20.4783Z" fill="white"/>
</svg>
