<svg width="42" height="43" viewBox="0 0 42 43" fill="none" xmlns="http://www.w3.org/2000/svg">
<path d="M32.1562 0.00976562H9.84375C4.4072 0.00976562 0 4.41696 0 9.85352V32.166C0 37.6026 4.4072 42.0098 9.84375 42.0098H32.1562C37.5928 42.0098 42 37.6026 42 32.166V9.85352C42 4.41696 37.5928 0.00976562 32.1562 0.00976562Z" fill="#007ACC"/>
<path d="M9.28775 21.1491L9.27441 22.8691H12.0077H14.7411V30.6358V38.4024H16.6745H18.6078V30.6358V22.8691H21.3411H24.0743V21.1824C24.0743 20.2491 24.0545 19.4691 24.0278 19.4491C24.0077 19.4225 20.681 19.4091 16.6477 19.4158L9.30775 19.4358L9.28775 21.1491Z" fill="white"/>
<path d="M33.8898 19.3867C34.9564 19.6535 35.7698 20.1268 36.5165 20.9C36.9032 21.3135 37.4764 22.0668 37.5232 22.2468C37.5364 22.3001 35.7098 23.5268 34.6032 24.2134C34.5631 24.2402 34.403 24.0668 34.223 23.8002C33.6831 23.0135 33.1164 22.6734 32.2497 22.6135C30.9764 22.5267 30.1564 23.1935 30.1631 24.3068C30.1631 24.6334 30.2097 24.8267 30.3431 25.0935C30.623 25.6734 31.1431 26.0201 32.7765 26.7267C35.7831 28.0202 37.0697 28.8735 37.8698 30.0867C38.7631 31.4401 38.9631 33.6001 38.3564 35.2068C37.6898 36.9534 36.0364 38.14 33.7097 38.5335C32.9898 38.6601 31.283 38.6401 30.5098 38.5002C28.8231 38.2001 27.2231 37.3668 26.2365 36.2735C25.8498 35.8468 25.0964 34.7335 25.1432 34.6534C25.163 34.6268 25.3364 34.5202 25.5297 34.4068C25.7164 34.3002 26.4232 33.8935 27.0898 33.5068L28.2964 32.8067L28.5498 33.1801C28.9031 33.72 29.6764 34.4601 30.1431 34.7067C31.483 35.4135 33.3232 35.3134 34.2298 34.5002C34.6165 34.1468 34.7764 33.7801 34.7764 33.2402C34.7764 32.7534 34.7164 32.5401 34.4631 32.1734C34.1364 31.7068 33.4698 31.3134 31.5764 30.4934C29.4098 29.5601 28.4764 28.9801 27.6231 28.06C27.1298 27.5268 26.663 26.6734 26.4698 25.96C26.3098 25.3668 26.2698 23.8801 26.3964 23.2801C26.843 21.1868 28.4231 19.7268 30.7031 19.2934C31.4432 19.1534 33.163 19.2067 33.8898 19.3867Z" fill="white"/>
</svg>
