<svg width="38" height="37" viewBox="0 0 38 37" fill="none" xmlns="http://www.w3.org/2000/svg">
<path d="M19.747 1.91947C18.3854 0.556136 16.176 0.556137 14.8145 1.91949L1.01921 15.7333C-0.339738 17.0941 -0.339738 19.2984 1.01921 20.6592L14.7367 34.3951C16.0983 35.7584 18.3077 35.7584 19.6692 34.3951L33.4645 20.581C34.8235 19.2202 34.8235 17.016 33.4645 15.6552L19.747 1.91947Z" fill="#019833"/>
<path d="M24.5663 2.14844L24.0735 2.64161V4.45229L24.505 4.88415H26.7843V6.63367L11.7074 21.9357V4.90598H14.2131L14.7271 4.39124V2.55895L14.2525 2.19175H1.0668L0.635452 2.62361V4.49549L1.07408 4.93465H3.36742V34.3622C3.36742 35.4711 4.18316 36.4111 5.28094 36.567C5.98711 36.6675 6.69863 36.4235 7.19466 35.911L38 4.08138V2.64185L37.5075 2.14868L24.5663 2.14844Z" fill="white"/>
</svg>
