<svg width="52" height="41" viewBox="0 0 52 41" fill="none" xmlns="http://www.w3.org/2000/svg">
<path fill-rule="evenodd" clip-rule="evenodd" d="M5.82432 28.9375L0.5 22.9926L16.7975 17.0701L19.3342 24.0284L5.82432 28.9375Z" fill="#F89920"/>
<path fill-rule="evenodd" clip-rule="evenodd" d="M5.78771 28.8302L5.53687 36.8015L21.8343 30.879L19.2976 23.9211L5.78771 28.8302Z" fill="#FFBE22"/>
<path fill-rule="evenodd" clip-rule="evenodd" d="M51.0772 12.5061C53.4025 19.2321 45.9097 28.0704 34.2545 32.3059C22.5982 36.5409 11.1682 34.579 8.61867 27.934L51.0772 12.5061Z" fill="#F0670A"/>
<path fill-rule="evenodd" clip-rule="evenodd" d="M51.0779 12.5057C48.5449 5.84354 37.1026 3.87363 25.4346 8.11291C13.766 12.3527 6.26945 21.2053 8.61886 27.9346L51.0779 12.5057Z" fill="#FFD00E"/>
<path fill-rule="evenodd" clip-rule="evenodd" d="M51.0745 12.5073C52.524 17.0077 44.3892 24.0167 32.7697 28.2384C21.1497 32.4611 10.4055 32.3125 8.61867 27.9347L51.0745 12.5073Z" fill="#F89920"/>
<path fill-rule="evenodd" clip-rule="evenodd" d="M51.0746 12.5059C49.3144 8.10726 38.5537 7.95114 26.915 12.1808C15.2763 16.41 7.13399 23.4344 8.61718 27.9337L51.0746 12.5059Z" fill="#FFBE22"/>
<path d="M31.4862 6.40165C30.3772 2.57319 29.1155 0.449819 27.6808 0.490315C24.9071 0.569175 23.9747 9.34932 24.8724 20.6003C25.7797 31.9705 28.1329 40.512 31.0667 40.4347C32.8162 40.3889 33.8015 37.5947 34.1473 32.7432C34.1543 32.6441 34.0438 32.7128 34.0502 32.6115C34.0502 32.6115 34.0358 32.4346 33.9701 32.4304L33.5981 32.4064C33.2934 37.1167 32.37 39.831 31.0518 39.8656C28.6404 39.9285 26.3124 31.4793 25.4414 20.5555C24.5837 9.81076 25.507 1.12172 27.6974 1.05938C28.7344 1.03007 29.8963 2.9856 30.9242 6.51141C30.9242 6.51141 31.4867 6.40324 31.4862 6.40164L31.4862 6.40165Z" fill="#F0670A"/>
<path d="M17.7449 3.66972C15.3821 5.12277 18.9719 13.1916 25.3839 22.4875C31.8637 31.8815 38.1797 38.104 40.6817 36.5726C42.08 35.7169 41.6878 33.1187 39.8865 29.197C39.8718 29.1616 39.8502 29.1296 39.8229 29.1027C39.7955 29.0759 39.763 29.0548 39.7273 29.0408C39.6916 29.0268 39.6535 29.0201 39.6151 29.0212C39.5768 29.0223 39.5391 29.031 39.5042 29.047C39.4693 29.063 39.4381 29.0858 39.4123 29.1141C39.3864 29.1424 39.3666 29.1757 39.354 29.2118C39.3413 29.248 39.3361 29.2863 39.3387 29.3245C39.3412 29.3627 39.3515 29.4 39.3688 29.4342C41.0425 33.0804 41.4022 35.4638 40.3834 36.0872C38.327 37.3452 32.0799 31.1904 25.8536 22.1641C19.7303 13.2875 16.1779 5.30234 18.0443 4.1546C19.0348 3.54503 21.3917 5.01567 24.5059 8.19194C24.5406 8.2271 24.7397 8.43331 24.784 8.44663C24.8806 8.47593 24.832 8.27186 24.9094 8.1962C24.9362 8.17005 24.9576 8.13888 24.9724 8.10447C24.9871 8.07006 24.9949 8.03309 24.9953 7.99567C24.9957 7.95826 24.9887 7.92113 24.9747 7.88641C24.9607 7.8517 24.94 7.82008 24.9137 7.79337C21.5865 4.40024 19.0898 2.84221 17.7449 3.66918V3.66972Z" fill="#F0670A"/>
</svg>
