<svg width="46" height="30" viewBox="0 0 46 30" fill="none" xmlns="http://www.w3.org/2000/svg">
<path d="M18.5822 13.8168C18.5822 13.8168 22.9154 13.4872 22.9154 8.29767C22.9154 3.11243 19.9765 0.55634 15.4844 0.55634L0.0956268 0.531982V29.1877H15.8423C15.8423 29.1877 23.7156 29.437 23.7156 20.591C23.7156 20.591 24.2939 13.8168 18.5822 13.8168ZM5.82167 4.83033H13.695C13.695 4.83033 16.3891 4.87475 16.3891 8.37074C16.3891 11.9943 13.695 11.9943 13.695 11.9943H5.82167V4.83033ZM14.4107 24.8893H5.82167V16.2926H14.4107C14.4107 16.2926 18.7053 16.337 18.7053 20.591C18.7053 24.8449 15.0292 24.8893 14.4107 24.8893Z" fill="white"/>
<path d="M35.8838 7.69653C25.1288 7.69653 25.1474 18.4424 25.1474 18.4424C25.1474 18.4424 24.4317 29.1883 35.8838 29.1883C35.8838 29.1883 45.9043 29.1883 45.9043 20.5916H40.1783C40.1783 20.5916 40.1783 24.8899 35.8838 24.8899C35.8838 24.8899 31.5892 24.8899 31.5892 19.1588C31.5892 19.1588 43.0413 19.1588 45.9043 19.1588C45.9043 16.2932 45.9043 7.69653 35.8838 7.69653ZM31.5892 16.2932C31.5892 16.2932 31.4948 11.9949 35.8838 11.9949C40.2714 11.9949 40.1783 16.2932 40.1783 16.2932H31.5892Z" fill="white"/>
<path d="M41.6102 3.39771H30.1581V6.26327H41.6102V3.39771Z" fill="white"/>
</svg>
