<svg width="38" height="32" viewBox="0 0 38 32" fill="none" xmlns="http://www.w3.org/2000/svg">
<path d="M14.9403 17.8765C15.0789 15.3945 16.2884 13.2078 18.1132 11.6576C19.9028 10.1352 22.3116 9.20459 24.9398 9.20459C27.5654 9.20459 29.9742 10.1352 31.765 11.6576C33.5886 13.2078 34.7981 15.3945 34.9379 17.8738C35.0763 20.424 34.0562 22.7931 32.2666 24.5493C30.4418 26.3356 27.8463 27.4566 24.9398 27.4566C22.0334 27.4566 19.4327 26.3356 17.6091 24.5493C15.8181 22.7931 14.8007 20.424 14.9403 17.8765Z" fill="white"/>
<path d="M19.8094 18.0995C19.8804 16.826 20.5011 15.7039 21.4373 14.9086C22.3556 14.1273 23.5915 13.6499 24.9401 13.6499C26.2873 13.6499 27.5233 14.1273 28.442 14.9086C29.3778 15.7039 29.9984 16.826 30.0702 18.0981C30.1411 19.4067 29.6177 20.6222 28.6995 21.5235C27.7631 22.4401 26.4315 23.0151 24.9401 23.0151C23.4488 23.0151 22.1143 22.4401 21.1786 21.5235C20.2598 20.6222 19.7377 19.4067 19.8094 18.0995Z" fill="#265787"/>
<path d="M11.6391 20.6726C11.6478 21.171 11.806 22.1394 12.0432 22.8958C12.5419 24.4966 13.3877 25.9775 14.5646 27.2827C15.7725 28.6243 17.2597 29.7018 18.9776 30.4668C20.7833 31.2702 22.7397 31.6797 24.7719 31.6763C26.8007 31.6736 28.7572 31.2561 30.5628 30.4466C32.2807 29.6741 33.7666 28.5919 34.9724 27.2498C36.1486 25.9391 36.9932 24.4554 37.4931 22.8547C37.7446 22.0457 37.9033 21.2248 37.967 20.4012C38.0294 19.5897 38.0033 18.7768 37.8887 17.9646C37.6648 16.3819 37.1198 14.8969 36.2806 13.5433C35.5133 12.2994 34.5239 11.2105 33.3477 10.2938L33.3504 10.2918L21.4796 1.13328C21.4688 1.1252 21.4603 1.11645 21.4488 1.10905C20.6699 0.508306 19.3603 0.510326 18.5037 1.11241C17.6377 1.72122 17.5387 2.72806 18.3094 3.36314L18.306 3.3665L23.2572 7.41202L8.16654 7.42818H8.14644C6.89912 7.42954 5.70004 8.25184 5.46277 9.291C5.2188 10.3497 6.06599 11.2278 7.36291 11.2326L7.36091 11.2373L15.0097 11.2224L1.36085 21.7494C1.34344 21.7623 1.32466 21.7757 1.30859 21.7886C0.021032 22.7792 -0.395177 24.4265 0.415819 25.4689C1.23888 26.5291 2.98889 26.5311 4.28984 25.475L11.739 19.3492C11.739 19.3492 11.6304 20.1762 11.6391 20.6726ZM30.7806 23.4419C29.2459 25.0131 27.097 25.9042 24.7719 25.9088C22.4434 25.9129 20.2946 25.03 18.7598 23.4614C18.0099 22.697 17.4587 21.8176 17.119 20.8807C16.7859 19.96 16.6566 18.9828 16.7424 17.9968C16.8234 17.0332 17.109 16.1139 17.5648 15.2822C18.0125 14.4645 18.6291 13.7258 19.3905 13.1009C20.8825 11.8792 22.7819 11.2178 24.7685 11.2151C26.7571 11.2124 28.6552 11.8676 30.1487 13.0853C30.9086 13.7076 31.5247 14.4438 31.9724 15.2599C32.4302 16.091 32.7136 17.0069 32.798 17.9734C32.8826 18.958 32.7531 19.9337 32.42 20.8552C32.0795 21.7947 31.5306 22.6741 30.7806 23.4419Z" fill="#EA7600"/>
</svg>
