<svg width="48" height="37" viewBox="0 0 48 37" fill="none" xmlns="http://www.w3.org/2000/svg">
<path d="M40.6164 3.13333C46.0116 11.1219 48.676 20.1328 47.68 30.5065C47.6758 30.5504 47.6531 30.5907 47.6173 30.6171C43.5317 33.6384 39.5732 35.472 35.6703 36.6879C35.6399 36.6972 35.6074 36.6967 35.5773 36.6865C35.5472 36.6762 35.5211 36.6568 35.5025 36.6308C34.6008 35.3673 33.7815 34.0353 33.0638 32.6365C33.0226 32.5541 33.0602 32.4549 33.145 32.4224C34.4462 31.9287 35.6834 31.337 36.8735 30.6364C36.9673 30.581 36.9733 30.4457 36.8867 30.3808C36.6341 30.1919 36.3839 29.9935 36.1444 29.795C36.0996 29.7584 36.0393 29.7511 35.9886 29.7758C28.2622 33.369 19.7983 33.369 11.9805 29.7758C11.9298 29.7529 11.8694 29.7608 11.8259 29.7968C11.587 29.9953 11.3362 30.1919 11.086 30.3808C10.9994 30.4457 11.0066 30.581 11.1009 30.6364C12.291 31.3237 13.5283 31.9287 14.8277 32.4248C14.9119 32.4573 14.9519 32.5541 14.9101 32.6365C14.2079 34.0371 13.3886 35.3691 12.4702 36.6326C12.4302 36.6837 12.3645 36.7072 12.3024 36.6879C8.41797 35.472 4.45952 33.6384 0.373883 30.6171C0.339846 30.5907 0.315363 30.5486 0.31178 30.5047C-0.520635 21.5316 1.17584 12.4461 7.3688 3.13153C7.38372 3.10687 7.40641 3.08763 7.43269 3.0762C10.4799 1.6678 13.7445 0.631636 17.1565 0.0398886C17.2186 0.0302667 17.2807 0.0591324 17.313 0.114458C17.7346 0.86617 18.2165 1.83017 18.5425 2.61796C22.1391 2.0647 25.7918 2.0647 29.4636 2.61796C29.7897 1.847 30.2548 0.86617 30.6746 0.114458C30.6896 0.0870118 30.7127 0.065023 30.7408 0.0516314C30.7689 0.0382398 30.8005 0.0341299 30.8311 0.0398886C34.2449 0.63344 37.5095 1.6696 40.5543 3.0762C40.5812 3.08763 40.6033 3.10687 40.6164 3.13333V3.13333ZM20.371 20.1942C20.4086 17.5415 18.4882 15.3465 16.0775 15.3465C13.6865 15.3465 11.7847 17.5223 11.7847 20.1942C11.7847 22.8655 13.7242 25.0412 16.0775 25.0412C18.4691 25.0412 20.371 22.8655 20.371 20.1942V20.1942ZM36.2442 20.1942C36.2818 17.5415 34.3614 15.3465 31.9513 15.3465C29.5598 15.3465 27.6579 17.5223 27.6579 20.1942C27.6579 22.8655 29.5974 25.0412 31.9513 25.0412C34.3614 25.0412 36.2442 22.8655 36.2442 20.1942V20.1942Z" fill="white"/>
</svg>
