<svg width="16" height="39" viewBox="0 0 16 39" fill="none" xmlns="http://www.w3.org/2000/svg">
<path d="M5.92382 0.787713C4.8787 1.62099 3.26864 3.03332 1.99755 4.24793L0.994793 5.19419L1.1784 6.43704C1.27726 7.11496 1.46086 8.44255 1.57385 9.37468C1.70096 10.3068 1.82807 11.1825 1.87044 11.3096C1.92693 11.4791 1.87044 11.5638 1.71508 11.5638C1.44674 11.5638 1.43261 11.4932 2.16703 13.8235C2.43537 14.7133 2.68959 15.5324 2.71784 15.6172C2.74608 15.716 2.85907 15.7584 2.98618 15.716C3.11329 15.6596 3.1839 15.5466 3.14153 15.4477C3.09916 15.3347 3.16978 15.2217 3.28277 15.1794C3.43812 15.1229 3.424 15.0099 3.1839 14.6003C2.80258 13.9648 1.82807 8.54141 1.77157 6.79012C1.7292 5.54727 1.7292 5.53314 2.25177 4.82698C2.76021 4.13494 3.93244 3.08981 5.74022 1.76222C6.24866 1.3809 6.7571 0.957195 6.89833 0.815962C7.11018 0.561742 7.20905 0.63236 8.98858 2.52488C10.0196 3.61238 11.1636 4.72812 11.5308 5.01058L12.2087 5.51902L11.6861 6.62064C11.4037 7.21382 10.2597 9.50179 9.12981 11.6768C6.77122 16.2527 7.25141 15.8149 4.51149 15.8573L2.73196 15.8714L2.13878 16.5493C1.51735 17.2696 1.43261 17.538 1.7292 17.9899C1.84219 18.1453 1.92693 18.3995 1.92693 18.5548C1.92693 18.809 2.02579 18.8514 2.59073 18.8797C2.94381 18.8938 3.26864 18.9362 3.31101 18.9785C3.35338 19.0209 3.40988 19.8965 3.45225 20.9275L3.50874 22.7918L2.56248 24.8256C0.994793 28.2152 0.373367 29.7687 0.373367 30.2772C0.373367 30.5455 0.429861 30.7715 0.486354 30.7715C0.627587 30.7715 0.627587 30.7574 6.37577 18.7667C9.04507 13.2021 11.5731 7.96235 11.9968 7.10083C12.4205 6.23931 12.8019 5.4484 12.8301 5.33542C12.8584 5.20831 11.8839 4.2338 10.3303 2.86384C8.93209 1.62099 7.70336 0.491124 7.59037 0.364014C7.26554 -0.0314381 6.78535 0.0956716 5.92382 0.787713ZM6.40402 17.0295C5.75435 18.2865 5.7261 18.3006 3.94656 18.3853C2.37888 18.4701 2.35063 18.456 2.35063 18.1594C2.35063 17.9899 2.29414 17.7639 2.22352 17.6509C2.13878 17.5238 2.19527 17.2979 2.393 16.9871L2.70371 16.507H4.11604C4.89282 16.4928 5.78259 16.4363 6.0933 16.3798C6.40402 16.3233 6.67236 16.2951 6.70061 16.3092C6.72885 16.3233 6.58762 16.6482 6.40402 17.0295ZM5.21766 19.2892C5.10467 19.5858 4.80808 20.2073 4.56799 20.6733C4.17254 21.4642 4.13017 21.4925 4.0313 21.1676C3.97481 20.9699 3.93244 20.3909 3.91832 19.8683C3.90419 18.8373 3.87595 18.8514 5.0623 18.7808L5.44363 18.7667L5.21766 19.2892Z" fill="white"/>
<path d="M6.34754 4.14906C6.09332 4.33266 6.02271 4.51626 6.02271 4.98233C6.02271 5.53314 6.06507 5.61788 6.4464 5.77324C6.82773 5.92859 6.9266 5.91447 7.36442 5.61788C7.94347 5.22243 7.9576 5.12357 7.5339 4.48802C7.16669 3.93721 6.79949 3.83835 6.34754 4.14906ZM7.15257 4.6575C7.37854 5.05295 7.23731 5.34954 6.81361 5.34954C6.43228 5.34954 6.2628 4.96821 6.47465 4.58688C6.64413 4.27617 6.96897 4.30441 7.15257 4.6575Z" fill="white"/>
<path d="M15.2028 7.32638C15.2028 7.397 15.1181 7.46761 15.0192 7.46761C14.9345 7.46761 14.6944 7.86307 14.5108 8.34326C13.9459 9.81208 8.29654 20.9836 8.28241 20.6305C8.28241 20.4469 8.19767 20.3198 8.05644 20.3198C7.85871 20.3198 7.83047 20.4328 7.91521 20.9836C7.99995 21.6192 7.94345 21.7604 5.93794 25.6584C4.80808 27.8758 3.59348 30.192 3.24039 30.8134C2.87319 31.4631 2.59072 32.1693 2.56247 32.4659C2.5201 32.9743 2.5766 33.0449 3.80533 34.1042C4.51149 34.7256 5.41538 35.5024 5.81083 35.8554C7.59037 37.4796 8.42364 38.1293 8.64962 38.0869C8.98858 38.0304 14.2283 32.5365 14.2424 32.2258C14.2424 32.0845 13.9882 29.9378 13.6775 27.4521C13.1408 23.2151 12.6324 18.2578 12.6889 17.7776C12.7313 17.481 12.5194 15.984 12.364 15.3343C12.2369 14.8259 12.2934 14.614 13.3103 12.2978C13.9035 10.9278 14.6803 9.24715 15.0192 8.56923C15.3441 7.89131 15.6265 7.29813 15.6265 7.25576C15.6265 7.2134 15.5277 7.18515 15.4147 7.18515C15.3017 7.18515 15.2028 7.24164 15.2028 7.32638ZM11.9545 17.8765C12.1098 18.8651 12.4205 21.2378 12.6465 23.1445C13.0843 26.6471 13.5928 30.531 13.734 31.5196C13.8187 32.0139 13.7623 32.1128 12.8442 33.1297C11.2483 34.9233 9.55351 36.6887 8.97445 37.1407L8.43777 37.5644L5.68372 34.9939C3.14153 32.6495 2.92968 32.4094 3.08504 32.1269C3.16978 31.9715 3.89007 30.6581 4.68097 29.2175C5.47187 27.7769 6.517 25.8562 6.99719 24.9523C7.49151 24.0342 7.94345 23.2433 8.02819 23.201C8.12706 23.1445 8.1553 24.5709 8.12706 27.6074C8.07056 32.141 8.08469 32.1551 8.53663 32.0563C8.59312 32.0563 8.63549 29.7683 8.63549 26.986V21.9299L10.1184 18.964C10.9376 17.3257 11.6155 16.0122 11.6438 16.0262C11.672 16.0405 11.8132 16.8737 11.9545 17.8765Z" fill="white"/>
</svg>
