<svg width="40" height="41" viewBox="0 0 40 41" fill="none" xmlns="http://www.w3.org/2000/svg">
<path fill-rule="evenodd" clip-rule="evenodd" d="M8.43477 1.04883C12.541 1.04883 15.8695 4.3774 15.8695 8.4836C15.8695 12.5898 12.541 15.9183 8.43477 15.9183C4.32857 15.9183 1 12.5898 1 8.4836C1 4.3774 4.32857 1.04883 8.43477 1.04883Z" stroke="#2088FF" stroke-width="2" stroke-linecap="round" stroke-linejoin="round"/>
<path fill-rule="evenodd" clip-rule="evenodd" d="M19.1738 15.9185C21.9112 15.9185 24.1305 18.1377 24.1305 20.8751C24.1305 23.6124 21.9112 25.8315 19.1738 25.8315C16.4365 25.8315 14.2174 23.6124 14.2174 20.8751C14.2174 18.1377 16.4365 15.9185 19.1738 15.9185Z" stroke="#2088FF" stroke-width="2" stroke-linecap="round" stroke-linejoin="round"/>
<path fill-rule="evenodd" clip-rule="evenodd" d="M19.1738 29.1357C21.9112 29.1357 24.1305 31.3548 24.1305 34.0924C24.1305 36.8297 21.9112 39.0488 19.1738 39.0488C16.4365 39.0488 14.2174 36.8297 14.2174 34.0924C14.2174 31.3548 16.4365 29.1357 19.1738 29.1357Z" stroke="#2088FF" stroke-width="2" stroke-linecap="round" stroke-linejoin="round"/>
<path fill-rule="evenodd" clip-rule="evenodd" d="M34.0435 29.1357C36.7809 29.1357 38.9999 31.3548 38.9999 34.0924C38.9999 36.8297 36.7809 39.0488 34.0435 39.0488C31.3059 39.0488 29.0869 36.8297 29.0869 34.0924C29.0869 31.3548 31.3059 29.1357 34.0435 29.1357Z" stroke="#79B8FF" stroke-width="2" stroke-linecap="round" stroke-linejoin="round"/>
<path d="M20.8562 19.7241L18.3208 22.2562L17.0893 21.0289" stroke="#2088FF" stroke-width="2" stroke-linecap="round" stroke-linejoin="round"/>
<path fill-rule="evenodd" clip-rule="evenodd" d="M34.0435 15.9185C36.7809 15.9185 38.9999 18.1377 38.9999 20.8751C38.9999 23.6124 36.7809 25.8315 34.0435 25.8315C31.3059 25.8315 29.0869 23.6124 29.0869 20.8751C29.0869 18.1377 31.3059 15.9185 34.0435 15.9185Z" stroke="#2088FF" stroke-width="2" stroke-linecap="round" stroke-linejoin="round"/>
<path d="M35.7256 19.7241L33.1902 22.2562L31.9589 21.0289" stroke="#2088FF" stroke-width="2" stroke-linecap="round" stroke-linejoin="round"/>
<path d="M5.95653 5.85037C5.95653 5.20021 6.67282 4.80488 7.22292 5.15139L11.4468 7.81225C11.9634 8.13763 11.9607 8.89158 11.4419 9.21328L7.21792 11.8324C6.66762 12.1735 5.95653 11.7778 5.95653 11.1303V5.85037Z" stroke="#2088FF" stroke-width="2" stroke-linecap="round" stroke-linejoin="round"/>
<path d="M7.60869 15.9185V28.3098C7.60869 31.5034 10.2333 34.0923 13.3913 34.0923H14.2174" stroke="#2088FF" stroke-width="2" stroke-linecap="round" stroke-linejoin="round"/>
<path d="M14.1752 21.7008C14.6314 21.7008 15.0013 21.3311 15.0013 20.8747C15.0013 20.4184 14.6314 20.0488 14.1752 20.0488V21.7008ZM6.78256 15.9473C6.78256 19.1249 9.35853 21.7008 12.5361 21.7008V20.0488C10.271 20.0488 8.43473 18.2124 8.43473 15.9473H6.78256ZM12.5361 21.7008H14.1752V20.0488H12.5361V21.7008Z" fill="#2088FF"/>
<path d="M24.1757 20.875H29.0865" stroke="#2088FF" stroke-width="2" stroke-linecap="round" stroke-linejoin="round"/>
<path fill-rule="evenodd" clip-rule="evenodd" d="M17.5217 33.2661C17.9777 33.2661 18.3478 33.6362 18.3478 34.0922C18.3478 34.5487 17.9777 34.9183 17.5217 34.9183C17.0659 34.9183 16.6956 34.5487 16.6956 34.0922C16.6956 33.6362 17.0659 33.2661 17.5217 33.2661Z" fill="#79B8FF"/>
<path fill-rule="evenodd" clip-rule="evenodd" d="M20.826 33.2661C21.2818 33.2661 21.6522 33.6362 21.6522 34.0922C21.6522 34.5487 21.2818 34.9183 20.826 34.9183C20.3703 34.9183 19.9999 34.5487 19.9999 34.0922C19.9999 33.6362 20.3703 33.2661 20.826 33.2661Z" fill="#79B8FF"/>
<path d="M28.2649 34.0977L27.4285 34.1251" stroke="#79B8FF" stroke-width="2" stroke-linecap="round"/>
</svg>
