<svg width="44" height="45" viewBox="0 0 44 45" fill="none" xmlns="http://www.w3.org/2000/svg">
<path d="M33.6875 0.847656H10.3125C4.61706 0.847656 0 5.46472 0 11.1602V34.5352C0 40.2306 4.61706 44.8477 10.3125 44.8477H33.6875C39.3829 44.8477 44 40.2306 44 34.5352V11.1602C44 5.46472 39.3829 0.847656 33.6875 0.847656Z" fill="#F0DB4F"/>
<path d="M11.5686 37.6166L14.9358 35.5789C15.5854 36.7306 16.1763 37.7051 17.5937 37.7051C18.9524 37.7051 19.809 37.1737 19.809 35.1064V21.0474H23.944V35.1648C23.944 39.4474 21.4336 41.3968 17.7709 41.3968C14.4632 41.3968 12.5432 39.6838 11.5685 37.6163" fill="#323330"/>
<path d="M26.191 37.1737L29.5577 35.2245C30.4441 36.6718 31.596 37.735 33.6337 37.735C35.3471 37.735 36.4396 36.8784 36.4396 35.6969C36.4396 34.2793 35.3172 33.7771 33.4269 32.9504L32.3935 32.5071C29.4102 31.2373 27.4313 29.6423 27.4313 26.2753C27.4313 23.174 29.7942 20.811 33.4862 20.811C36.1149 20.811 38.0052 21.7268 39.3637 24.1191L36.1443 26.1866C35.4353 24.9166 34.6677 24.4146 33.4862 24.4146C32.2752 24.4146 31.5073 25.1825 31.5073 26.1866C31.5073 27.427 32.2752 27.9292 34.0472 28.6973L35.0809 29.1403C38.5956 30.6467 40.5745 32.1823 40.5745 35.6378C40.5745 39.3596 37.6506 41.3974 33.7224 41.3974C29.8829 41.3974 27.4019 39.5662 26.191 37.1737Z" fill="#323330"/>
</svg>
