<svg width="40" height="47" viewBox="0 0 40 47" fill="none" xmlns="http://www.w3.org/2000/svg">
<path d="M10.9469 38.6687L16.2176 41.5951H24.188L31.6441 35.997L34.9865 27.218L27.2732 17.9303L25.0879 12.7139L14.4179 13.0955L14.5464 16.0218L12.4896 19.8387L9.27577 26.073L8.633 31.2894L10.9469 38.6687Z" fill="#ECEFF1"/>
<path d="M32.6726 20.3475C30.6157 17.4211 28.9445 15.64 28.0447 11.9503C27.1449 8.26066 28.3019 9.27851 27.5305 6.09775C27.1449 4.44376 26.502 3.29869 25.8594 2.40807C25.088 1.51746 24.1882 1.00854 23.6738 0.8813C22.517 0.245165 19.8173 -0.77269 16.4749 1.00854C13.0039 2.78977 13.3896 6.60667 14.0324 14.3677C14.0324 14.8766 13.9038 15.5128 13.6467 16.0217C13.1325 17.1668 12.2326 18.1845 11.4613 19.0753C10.5614 20.3475 9.66153 21.6199 9.01878 23.0193C7.47613 25.9457 6.06205 29.6353 6.4477 31.0349C7.09048 30.9077 15.1894 43.1218 15.1894 43.3762C15.7036 43.249 17.8889 43.249 19.8173 43.249C22.517 43.1218 24.0595 42.9946 26.245 43.5034C26.245 43.1218 26.1163 42.74 26.1163 42.3584C26.1163 41.595 26.245 40.9588 26.3735 40.0682C26.502 39.432 26.6307 38.796 26.7592 38.0326C25.4737 39.1776 23.1596 40.45 20.9743 40.8316C19.0459 41.2132 15.8321 40.5772 14.2894 38.6686C14.4181 38.6686 14.675 38.6686 14.8037 38.5414C15.1894 38.4142 15.5751 38.287 15.7036 38.0326C16.0893 37.3964 15.8321 36.7602 15.5751 36.3786C15.3179 35.9968 13.3896 34.5972 12.4897 33.8341C11.5899 33.0707 11.0756 32.6889 10.5614 32.1801C10.5614 32.1801 9.7901 31.4167 9.53298 31.1621C9.27588 30.9077 9.14733 30.6533 9.01878 30.5259C8.76168 29.8899 8.63311 29.1265 8.76168 28.1087C8.89023 26.7091 9.40443 25.5639 10.0472 24.2917C10.3043 23.7827 10.9471 22.7649 10.9471 22.7649C10.9471 22.7649 8.76168 28.1087 9.91866 29.7627C9.91866 29.7627 10.0472 28.1087 10.5614 26.4547C10.9471 25.3095 11.5899 23.6555 12.3612 22.7649C13.1325 21.8743 15.0607 18.5663 15.1894 16.5306C15.1894 15.64 15.3179 14.7494 15.3179 14.1133C14.8037 13.6043 23.8025 12.332 24.3167 13.7316C24.4451 14.2405 26.245 18.8207 27.2733 21.2381C27.7875 22.3833 28.4304 23.4011 28.816 24.6733C29.2017 26.0729 29.4587 27.9813 29.4587 29.8899C29.4587 30.2715 29.4587 30.9077 29.3302 31.5439C29.5874 31.5439 34.6009 26.2001 28.6876 21.7471C28.6876 21.7471 32.2869 23.4011 32.4156 26.7091C32.5441 29.3809 31.387 31.5439 31.1301 31.9255C31.2586 31.9255 33.8296 33.0707 33.9581 33.0707C34.4724 33.0707 35.5008 32.6889 35.5008 32.6889C35.6295 32.3073 36.0149 31.2893 36.0149 30.9077C36.915 27.9813 34.7294 23.2739 32.6726 20.3475Z" fill="#263238"/>
<path d="M16.3462 11.95C17.2692 11.95 18.0173 10.8108 18.0173 9.40544C18.0173 8.00009 17.2692 6.86084 16.3462 6.86084C15.4233 6.86084 14.675 8.00009 14.675 9.40544C14.675 10.8108 15.4233 11.95 16.3462 11.95Z" fill="#ECEFF1"/>
<path d="M22.1311 12.2046C23.3382 12.2046 24.3166 10.8945 24.3166 9.27835C24.3166 7.6622 23.3382 6.35205 22.1311 6.35205C20.9242 6.35205 19.9458 7.6622 19.9458 9.27835C19.9458 10.8945 20.9242 12.2046 22.1311 12.2046Z" fill="#ECEFF1"/>
<path d="M17.2799 9.58006C17.1731 8.74351 16.6867 8.11537 16.1936 8.17703C15.7007 8.23872 15.3874 8.96688 15.4944 9.80343C15.6012 10.64 16.0874 11.2681 16.5805 11.2064C17.0736 11.1448 17.3867 10.4166 17.2799 9.58006Z" fill="#212121"/>
<path d="M22.0026 11.4413C22.7127 11.4413 23.2881 10.7008 23.2881 9.78731C23.2881 8.87384 22.7127 8.1333 22.0026 8.1333C21.2927 8.1333 20.7171 8.87384 20.7171 9.78731C20.7171 10.7008 21.2927 11.4413 22.0026 11.4413Z" fill="#212121"/>
<path d="M39.1002 37.7783C38.586 37.524 37.686 37.1421 36.9146 35.9972C36.5292 35.361 36.6577 33.5798 36.0148 32.8164C35.6291 32.3076 35.115 32.562 34.9865 32.562C33.8295 32.8164 31.1298 34.5976 29.3301 32.562C29.0729 32.3076 28.6872 31.9258 28.0446 31.9258C27.4017 31.9258 27.1448 32.1802 26.8876 32.6892C26.6304 33.1982 26.6304 33.5798 26.6304 34.8522C26.6304 35.87 26.6304 37.0149 26.5019 37.9055C26.2447 40.0685 25.8593 41.3409 25.8593 42.6131C25.8593 44.0127 26.2447 44.9033 26.7591 45.2849C27.1448 45.6667 27.7874 45.9211 29.2016 45.9211C30.6156 45.9211 31.5154 45.4123 32.4155 44.5215C33.0581 43.8855 33.5723 43.6309 35.3722 42.3587C36.7862 41.4681 38.9717 40.3229 39.3572 39.9413C39.6144 39.6869 40 39.5595 40 38.7961C40 38.1602 39.4859 37.9055 39.1002 37.7783Z" fill="#FFC107"/>
<path d="M13.2609 38.1601C11.9754 36.1243 11.8468 35.7427 10.9469 34.4703C10.1756 33.1981 8.50443 30.7808 7.476 30.7808C6.70467 30.7808 6.319 31.1624 5.8048 31.6714C5.29058 32.1801 4.77637 33.3253 3.8765 33.9615C3.10517 34.5975 0.919772 34.4703 0.405548 35.2337C-0.108676 35.9971 0.919771 37.1423 0.919771 39.0507C0.919771 39.8141 0.276997 40.3229 0.148446 40.8319C0.0198959 41.4681 -0.108676 41.8497 0.148446 42.3587C0.662649 43.1221 1.30542 43.3765 5.67625 44.2671C7.9902 44.7761 10.1756 46.0483 11.5897 46.1757C13.0038 46.3029 15.4463 46.1757 15.4463 42.7403C15.575 40.7047 14.4179 40.1957 13.2609 38.1601Z" fill="#FFC107"/>
<path d="M15.7035 15.1311C14.9322 14.6222 14.2893 14.1133 14.2893 13.3499C14.2893 12.5865 14.8037 12.3321 15.575 11.6959C15.7035 11.5687 17.1175 10.2964 18.5317 10.2964C19.9457 10.2964 21.6169 11.187 22.2597 11.4415C23.4168 11.6959 24.5736 11.9504 24.4451 12.841C24.3166 14.1133 24.1881 14.3678 22.9024 15.0039C22.0026 15.2584 20.3314 16.6579 19.1744 16.6579C18.6602 16.6579 17.8889 16.6579 17.3747 16.5307C16.989 16.4034 16.3462 15.7673 15.7035 15.1311Z" fill="#FFC107"/>
<path d="M15.4462 14.1135C15.7034 14.3679 16.0891 14.6224 16.4747 14.7496C16.7317 14.8768 17.1174 15.0041 17.1174 15.0041C17.6318 15.0041 18.0174 15.0041 18.2744 15.0041C18.9173 15.0041 19.8171 14.7496 20.7169 14.2407C21.6168 13.859 21.7455 13.6045 22.3881 13.3501C23.031 12.9684 23.6736 12.5867 23.4166 12.4595C23.1595 12.3322 22.9023 12.4595 22.0024 12.9684C21.2311 13.4773 20.5885 13.7318 19.8171 14.1135C19.4314 14.2407 18.9173 14.4951 18.5316 14.4951C18.1459 14.4951 17.7603 14.4951 17.3746 14.4951C16.9889 14.4951 16.7317 14.3679 16.346 14.2407C16.0891 14.1135 15.9604 13.9862 15.8319 13.9862C15.5749 13.859 15.0605 13.3501 14.8036 13.2228C14.8036 13.2228 14.5464 13.2228 14.6749 13.3501C15.0605 13.7318 15.1892 13.859 15.4462 14.1135Z" fill="#634703"/>
<path d="M19.3028 11.314C19.4313 11.5685 19.6885 11.5685 19.817 11.6957C19.9455 11.8229 20.074 11.8229 20.074 11.8229C20.2027 11.6957 20.074 11.4413 19.9455 11.4413C19.9455 11.1868 19.3028 11.1868 19.3028 11.314Z" fill="#634703"/>
<path d="M17.2462 11.5687C17.2462 11.6959 17.5031 11.8231 17.5031 11.6959C17.6318 11.5687 17.7603 11.4415 17.8888 11.4415C18.146 11.3142 18.0173 11.187 17.6318 11.187C17.3746 11.3142 17.3746 11.4415 17.2462 11.5687Z" fill="#634703"/>
<path d="M29.7158 34.0881C29.7158 34.2153 29.7158 34.3425 29.7158 34.4697C29.9729 34.9787 30.6156 35.1059 31.1297 35.1059C31.9011 35.1059 32.6724 34.5969 33.0581 34.0881C33.0581 33.9609 33.1866 33.8335 33.3153 33.7063C33.5723 33.3247 33.701 33.0703 33.8295 32.9429C33.8295 32.9429 33.701 32.8157 33.701 32.6885C33.5723 32.4341 33.1866 32.1795 32.6724 32.0523C32.2868 31.9251 31.6441 31.7979 31.3869 31.7979C30.2299 31.6707 29.5873 32.0523 29.2016 32.4341C29.2016 32.4341 29.3301 32.4341 29.3301 32.5613C29.5873 32.8157 29.7158 33.0703 29.7158 33.4519C29.8442 33.7063 29.7158 33.8335 29.7158 34.0881Z" fill="#455A64"/>
</svg>
