<svg width="38" height="38" viewBox="0 0 38 38" fill="none" xmlns="http://www.w3.org/2000/svg">
<path fill-rule="evenodd" clip-rule="evenodd" d="M35.0019 29.4075C32.9348 29.35 31.3311 29.5618 29.9872 30.1273C29.6002 30.2827 28.9792 30.2827 28.9281 30.7698C29.135 30.9742 29.1599 31.3086 29.3413 31.592C29.6511 32.1061 30.1945 32.7987 30.6852 33.1581L32.3394 34.3401C33.3474 34.956 34.4846 35.316 35.4667 35.9325C36.0355 36.2923 36.6039 36.7547 37.1727 37.1405C37.4624 37.3459 37.6379 37.6806 38 37.8083V37.7306C37.8193 37.5003 37.7671 37.1665 37.587 36.9084L36.8106 36.1639C36.0617 35.1623 35.1305 34.2881 34.1225 33.5696C33.2952 33.0043 31.4865 32.2339 31.1504 31.2839L31.0995 31.2263C31.6673 31.1688 32.3394 30.9689 32.8827 30.8147C33.7621 30.5844 34.5627 30.6351 35.4667 30.4041L36.7082 30.0443V29.8139C36.2428 29.3517 35.9069 28.735 35.4162 28.2987C34.0982 27.1685 32.6498 26.0635 31.1504 25.1389C30.3493 24.6254 29.3151 24.2907 28.4623 23.8549C28.1513 23.7006 27.635 23.6235 27.4543 23.3668C26.9879 22.8026 26.7301 22.0568 26.3941 21.3885L24.2748 16.919C23.8097 15.9171 23.5246 14.9152 22.9569 13.9906C20.2941 9.62353 17.3986 6.97794 12.9527 4.38304C11.9968 3.84356 10.8596 3.61153 9.65047 3.32942L7.71199 3.22578C7.29777 3.04614 6.88468 2.55791 6.5226 2.32645C5.04933 1.40179 1.24941 -0.601818 0.163142 2.03857C-0.534972 3.70825 1.19727 5.35203 1.7853 6.20012C2.2256 6.79083 2.79335 7.4587 3.10448 8.12658C3.27827 8.563 3.33621 9.0259 3.51754 9.48824C3.93061 10.6184 4.31878 11.8776 4.86162 12.9313C5.15129 13.4707 5.45545 14.0366 5.81754 14.5244C6.02436 14.8122 6.38646 14.9355 6.4635 15.3977C6.10141 15.9118 6.07651 16.6817 5.86967 17.3248C4.93867 20.2276 5.30076 23.8239 6.61876 25.9611C7.03301 26.603 8.0092 28.0164 9.33358 27.4765C10.4969 27.0141 10.2373 25.55 10.5734 24.2654C10.6516 23.9576 10.5994 23.7519 10.7541 23.5458V23.6035L11.8143 25.7354C12.6156 26.9941 14.0118 28.3044 15.1744 29.1784C15.7943 29.6408 16.2857 30.4376 17.0608 30.7197V30.642H17.0099C16.8545 30.4117 16.6216 30.308 16.4149 30.1283C15.9498 29.6661 15.4329 29.1007 15.0707 28.5872C13.9857 27.1488 13.0298 25.5557 12.1764 23.9119C11.7622 23.1157 11.4001 22.2422 11.0652 21.446C10.9088 21.1375 10.9088 20.6744 10.651 20.5214C10.2628 21.0855 9.69508 21.575 9.40946 22.2682C8.91819 23.3725 8.8672 24.7341 8.68646 26.1471C8.58217 26.1729 8.62852 26.1471 8.58217 26.2046C7.75602 25.9998 7.47099 25.151 7.16105 24.4324C6.38586 22.6085 6.25609 19.6801 6.92813 17.5735C7.10889 17.0341 7.88522 15.3385 7.57527 14.8248C7.41884 14.3367 6.90322 14.0546 6.61819 13.6688C6.28217 13.1806 5.92124 12.5645 5.68834 12.025C5.06844 10.5856 4.75849 8.99366 4.08589 7.55486C3.77476 6.88698 3.23252 6.1932 2.79278 5.57716C2.30151 4.88337 1.75981 4.39514 1.37166 3.57352C1.24246 3.28564 1.0617 2.82851 1.26854 2.5199C1.31951 2.31437 1.42379 2.23202 1.62947 2.18597C1.96549 1.89809 2.92255 2.26313 3.25857 2.41627C4.2145 2.80201 5.01571 3.1613 5.81695 3.70019C6.17905 3.95699 6.56722 4.44522 7.03242 4.57419H7.57584C8.40314 4.75383 9.33299 4.63177 10.1076 4.86207C11.4777 5.29965 12.7181 5.94102 13.8305 6.63538C17.2162 8.76739 20.0086 11.7987 21.8948 15.4213C22.2048 16.0121 22.334 16.5516 22.619 17.1681C23.1625 18.4274 23.8346 19.7114 24.3762 20.9451C24.9197 22.1525 25.4364 23.3864 26.2117 24.3881C26.5998 24.9276 28.15 25.2097 28.8476 25.4924C29.365 25.7227 30.1656 25.9301 30.632 26.2122C31.5102 26.7517 32.3892 27.3682 33.2158 27.959C33.6288 28.2664 34.9221 28.9089 34.999 29.4214L35.0019 29.4075ZM8.64184 7.08447C8.28471 7.08132 7.92869 7.1245 7.58279 7.21287V7.27045H7.63378C7.8406 7.68153 8.2027 7.96421 8.46108 8.32407L9.05607 9.55733L9.10704 9.49975C9.46913 9.24296 9.65047 8.83187 9.65047 8.21581C9.49521 8.03619 9.46973 7.85598 9.34052 7.67633C9.18527 7.41956 8.84925 7.29059 8.64184 7.08563V7.08447Z" fill="#2396ED"/>
</svg>
