<svg width="42" height="42" viewBox="0 0 42 42" fill="none" xmlns="http://www.w3.org/2000/svg">
<path d="M7.43749 0.440921H34.5625C35.5394 0.440005 36.507 0.630799 37.4098 1.00238C38.3126 1.37397 39.1328 1.91905 39.8236 2.60643C40.5145 3.29382 41.0623 4.11 41.4357 5.00829C41.8092 5.90657 42.0009 6.86931 42 7.84142V33.7867C42.0009 34.7588 41.8092 35.7215 41.4357 36.6198C41.0623 37.5181 40.5145 38.3343 39.8236 39.0217C39.1328 39.7091 38.3126 40.2541 37.4098 40.6257C36.507 40.9973 35.5394 41.1881 34.5625 41.1872H7.43749C6.46052 41.1881 5.49297 40.9973 4.59019 40.6257C3.68742 40.2541 2.86715 39.7091 2.17633 39.0217C1.48551 38.3343 0.937702 37.5181 0.564259 36.6198C0.190815 35.7215 -0.000932755 34.7588 -1.19582e-05 33.7867V7.84142C-0.000932755 6.86931 0.190815 5.90657 0.564259 5.00829C0.937702 4.11 1.48551 3.29382 2.17633 2.60643C2.86715 1.91905 3.68742 1.37397 4.59019 1.00238C5.49297 0.630799 6.46052 0.440005 7.43749 0.440921V0.440921Z" fill="#001E36"/>
<path d="M9.45001 29.0157V11.0978C9.45001 10.9759 9.50251 10.9062 9.62501 10.9062C9.92251 10.9062 10.2025 10.9062 10.605 10.8888C11.0075 10.8714 11.4625 10.8714 11.935 10.854C12.4075 10.8366 12.915 10.8366 13.4575 10.8192C14 10.8018 14.525 10.8018 15.05 10.8018C16.485 10.8018 17.675 10.9759 18.655 11.3416C19.5335 11.6384 20.3346 12.1262 21 12.7694C21.5639 13.3323 21.9996 14.0093 22.2775 14.7545C22.5424 15.4802 22.6786 16.2461 22.68 17.0182C22.68 18.5157 22.33 19.752 21.63 20.7271C20.9268 21.7009 19.9449 22.4412 18.8125 22.8515C17.6225 23.2868 16.31 23.4435 14.875 23.4435C14.455 23.4435 14.175 23.4435 14 23.4261C13.825 23.4087 13.58 23.4087 13.2475 23.4087V28.9983C13.2514 29.0269 13.2495 29.0561 13.2419 29.084C13.2342 29.1119 13.2211 29.138 13.2031 29.1607C13.1852 29.1834 13.1628 29.2024 13.1374 29.2163C13.1119 29.2303 13.0839 29.239 13.055 29.2421H9.66001C9.52001 29.2421 9.45001 29.1724 9.45001 29.0157ZM13.265 14.2669V20.1177C13.51 20.1351 13.7375 20.1525 13.9475 20.1525H14.875C15.5582 20.1533 16.2373 20.0476 16.8875 19.8391C17.4454 19.6758 17.9438 19.3553 18.3225 18.9162C18.69 18.4809 18.865 17.8888 18.865 17.1227C18.8815 16.5785 18.7419 16.041 18.4625 15.5729C18.1707 15.1208 17.7416 14.7731 17.2375 14.5804C16.5805 14.3243 15.8776 14.2058 15.1725 14.2321C14.7175 14.2321 14.315 14.2321 13.9825 14.2495C13.7433 14.234 13.5032 14.2398 13.265 14.2669V14.2669Z" fill="#31A8FF"/>
<path d="M33.6 19.0554C33.0716 18.7785 32.5057 18.5791 31.92 18.4634C31.2767 18.3184 30.6196 18.2425 29.96 18.237C29.6058 18.2249 29.2518 18.266 28.91 18.3589C28.692 18.4041 28.4987 18.5282 28.3675 18.7072C28.2791 18.8485 28.2307 19.0109 28.2275 19.1773C28.2356 19.343 28.297 19.5017 28.4025 19.6301C28.5684 19.8236 28.7704 19.9833 28.9975 20.1002C29.4 20.3092 29.82 20.5007 30.24 20.6748C31.1855 20.9916 32.0901 21.4182 32.935 21.946C33.5097 22.3056 33.9849 22.8024 34.3175 23.3913C34.5987 23.9468 34.737 24.563 34.72 25.1848C34.7342 26.0078 34.4961 26.8156 34.0375 27.5007C33.5494 28.1958 32.8683 28.7343 32.0775 29.0505C31.22 29.4161 30.17 29.6077 28.91 29.6077C28.1111 29.6109 27.3138 29.5351 26.53 29.3813C25.9128 29.2752 25.3125 29.0878 24.745 28.8241C24.684 28.7936 24.6332 28.7461 24.599 28.6873C24.5648 28.6285 24.5487 28.5611 24.5525 28.4933V25.4634C24.551 25.4336 24.5565 25.404 24.5687 25.3767C24.5808 25.3495 24.5993 25.3255 24.6225 25.3067C24.6471 25.2924 24.6758 25.2864 24.7041 25.2895C24.7325 25.2926 24.7591 25.3048 24.78 25.3241C25.4541 25.7195 26.1863 26.0074 26.95 26.1773C27.6243 26.3519 28.3183 26.4397 29.015 26.4385C29.68 26.4385 30.1525 26.3515 30.4675 26.1947C30.608 26.1302 30.7271 26.0271 30.8108 25.8975C30.8944 25.768 30.9393 25.6174 30.94 25.4634C30.94 25.2196 30.8 24.9932 30.52 24.7669C30.24 24.5405 29.6625 24.2793 28.805 23.9485C27.9253 23.64 27.0899 23.2186 26.32 22.6947C25.7716 22.3059 25.3173 21.8002 24.99 21.2146C24.7107 20.6647 24.5724 20.0545 24.5875 19.4385C24.5901 18.6955 24.7957 17.9672 25.1825 17.3316C25.6271 16.6325 26.2651 16.0762 27.02 15.7296C27.8425 15.3117 28.875 15.1201 30.1175 15.1201C30.8437 15.1203 31.5689 15.1727 32.2875 15.2768C32.8042 15.3464 33.3099 15.481 33.7925 15.6773C33.8694 15.7044 33.9323 15.7608 33.9675 15.834C33.9877 15.902 33.9994 15.9722 34.0025 16.043V18.8813C34.0028 18.9151 33.995 18.9486 33.9798 18.9788C33.9646 19.0091 33.9424 19.0354 33.915 19.0554C33.8132 19.0919 33.7018 19.0919 33.6 19.0554Z" fill="#31A8FF"/>
</svg>
