<svg width="48" height="48" viewBox="0 0 48 48" fill="none" xmlns="http://www.w3.org/2000/svg">
<path d="M24.0344 0.442139C11.0363 0.442139 0.5 10.9784 0.5 23.9745C0.5 33.9454 6.69966 42.4616 15.4553 45.8873C15.2492 44.0243 15.0647 41.1698 15.5358 39.136C15.9658 37.2965 18.296 27.4415 18.296 27.4415C18.296 27.4415 17.5913 26.028 17.5913 23.9451C17.5913 20.6804 19.4896 18.2303 21.8474 18.2303C23.8577 18.2303 24.8275 19.74 24.8275 21.5441C24.8275 23.5642 23.5455 26.5836 22.88 29.3811C22.3205 31.7231 24.0579 33.6313 26.3646 33.6313C30.5422 33.6313 33.7618 29.224 33.7618 22.8595C33.7618 17.2429 29.7118 13.3008 23.9303 13.3008C17.2359 13.3008 13.3116 18.3304 13.3116 23.5073C13.3116 25.5352 14.0851 27.7144 15.0568 28.8883C15.2512 29.1239 15.2767 29.33 15.2237 29.5656C15.047 30.3018 14.6485 31.9194 14.568 32.2414C14.464 32.6831 14.2303 32.7734 13.7808 32.5653C10.8459 31.2107 9.00441 26.9153 9.00441 23.4445C9.00441 16.0316 14.3992 9.20765 24.5526 9.20765C32.7154 9.20765 39.0643 15.0323 39.0643 22.7986C39.0643 30.9163 33.9463 37.4477 26.8279 37.4477C24.4447 37.4477 22.2067 36.2129 21.4135 34.7405L19.9431 40.3316C19.415 42.3831 17.9721 44.9489 17.0023 46.5077C19.2069 47.185 21.5294 47.558 23.9715 47.558C36.9421 47.558 47.5 37.0256 47.5 24.0256C47.5 11.0236 36.9421 0.493181 23.9715 0.493181L24.0344 0.442139Z" fill="white"/>
</svg>
