<svg width="40" height="37" viewBox="0 0 40 37" fill="none" xmlns="http://www.w3.org/2000/svg">
<path d="M20.0003 22.2236C21.958 22.2236 23.5449 20.6365 23.5449 18.6789C23.5449 16.7213 21.958 15.1343 20.0003 15.1343C18.0427 15.1343 16.4556 16.7213 16.4556 18.6789C16.4556 20.6365 18.0427 22.2236 20.0003 22.2236Z" fill="#00D8FF"/>
<path fill-rule="evenodd" clip-rule="evenodd" d="M20.0004 11.4717C24.7596 11.4717 29.1807 12.1546 32.5142 13.3022C36.5306 14.6849 39.0001 16.7808 39.0001 18.6787C39.0001 20.6564 36.383 22.883 32.0698 24.312C28.809 25.3924 24.5181 25.9563 20.0004 25.9563C15.3686 25.9563 10.9825 25.4269 7.68491 24.3C3.51291 22.8741 1.00006 20.6188 1.00006 18.6787C1.00006 16.7962 3.35788 14.7164 7.31785 13.3359C10.6638 12.1694 15.194 11.4717 19.9997 11.4717H20.0004Z" stroke="#00D8FF" stroke-width="2"/>
<path fill-rule="evenodd" clip-rule="evenodd" d="M13.7264 15.0961C16.1041 10.9735 18.9041 7.48471 21.5637 5.17028C24.7679 2.38175 27.8174 1.28966 29.4613 2.23767C31.1745 3.22567 31.796 6.60526 30.8792 11.0554C30.1867 14.4198 28.531 18.4186 26.274 22.3322C23.96 26.3446 21.3104 29.8798 18.6871 32.1727C15.3676 35.0744 12.1584 36.1245 10.4778 35.1553C8.84707 34.2156 8.22346 31.1336 9.00578 27.0134C9.66677 23.5321 11.3256 19.2591 13.7256 15.0961H13.7264Z" stroke="#00D8FF" stroke-width="2"/>
<path fill-rule="evenodd" clip-rule="evenodd" d="M13.7323 22.3428C11.348 18.2247 9.72469 14.0557 9.04709 10.5958C8.23144 6.42701 8.80813 3.23969 10.4506 2.28893C12.1622 1.29804 15.4005 2.44748 18.7981 5.46424C21.3669 7.74504 24.0046 11.1759 26.2681 15.0857C28.5888 19.0943 30.328 23.1556 31.0046 26.5733C31.8608 30.8985 31.1678 34.2031 29.4888 35.175C27.8597 36.1181 24.8784 35.1197 21.6996 32.3841C19.0137 30.0729 16.1402 26.5019 13.7323 22.3428Z" stroke="#00D8FF" stroke-width="2"/>
</svg>
