<svg width="40" height="47" viewBox="0 0 40 47" fill="none" xmlns="http://www.w3.org/2000/svg">
<path d="M33.3489 42.4578V30.1821H37.4195V46.532H0.678162V30.1821H4.74879V42.4578H33.3489Z" fill="white"/>
<path d="M9.24149 29.0185L29.2246 33.1986L30.0704 29.1772L10.0873 24.9972L9.24149 29.0185V29.0185ZM11.8848 19.4943L30.3876 28.119L32.0793 24.4151L13.5764 15.7375L11.8848 19.4943ZM17.0127 10.3934L32.7137 23.4627L35.3041 20.3409L19.6031 7.27157L17.0127 10.3934V10.3934ZM27.1628 0.710449L23.8852 3.14441L36.0442 19.5472L39.3218 17.1132L27.1628 0.710449V0.710449ZM8.81857 38.3311H29.2246V34.2568H8.81857V38.3311Z" fill="white"/>
</svg>
