<svg width="38" height="43" viewBox="0 0 38 43" fill="none" xmlns="http://www.w3.org/2000/svg">
<path d="M37.9556 29.9939V10.0405L20.6626 0.0638667V7.73483L27.4469 11.6368C27.713 11.7698 27.713 12.1689 27.4469 12.3019L19.3767 16.9577C19.1551 17.0908 18.8449 17.0908 18.623 16.9577L10.553 12.2576C10.287 12.1245 10.287 11.7255 10.553 11.5925L17.3373 7.69047V0.0195312L0.0442963 9.99619V29.9939V29.9052V29.9939L6.6954 26.1806V18.3323C6.6954 18.0663 7.00579 17.8446 7.27184 18.0219L15.3418 22.6777C15.5636 22.8107 15.7409 23.0767 15.7409 23.3428V32.6543C15.7409 32.9203 15.4305 33.142 15.1645 32.9647L8.38035 29.0626L1.72923 32.876L19.0222 42.8527L36.3151 32.876L29.6639 29.0626L22.8798 32.9647C22.6582 33.0976 22.3034 32.9203 22.3034 32.6543V23.3428C22.3034 23.0767 22.4363 22.8107 22.7023 22.6777L30.7725 18.0219C30.9942 17.8887 31.3488 18.0663 31.3488 18.3323V26.1806L37.9556 29.9939Z" fill="#CCCCCC"/>
<path d="M18.9778 42.897L36.2707 32.9203L29.6196 29.1069L22.8355 33.009C22.6138 33.1422 22.259 32.9646 22.259 32.6986V23.3871C22.259 23.121 22.3921 22.855 22.6582 22.7221L30.7282 18.0662C30.9498 17.9333 31.3046 18.1106 31.3046 18.3766V26.2249L37.9556 30.0382V10.0405L18.9778 20.9926V42.897Z" fill="#A6A6A6"/>
<path d="M20.6185 0.0195312V7.69047L27.4026 11.5925C27.6686 11.7255 27.6686 12.1245 27.4026 12.2576L19.3326 16.9133C19.1109 17.0464 18.8005 17.0464 18.5788 16.9133L10.553 12.2576C10.287 12.1245 10.287 11.7255 10.553 11.5925L17.3373 7.69047V0.0195312L0.0442963 9.99619L19.0222 20.9483L38 9.99619L20.6185 0.0195312Z" fill="white"/>
<path d="M15.0757 32.9646L8.29165 29.0628L1.64053 32.8761L18.9334 42.8526V20.9484L-7.62939e-05 10.0405V30.0382V29.9495V30.0382L6.65102 26.2249V18.3766C6.65102 18.1106 6.96141 17.8889 7.22747 18.0662L15.2976 22.7221C15.5192 22.855 15.6965 23.121 15.6965 23.3871V32.6986C15.6522 32.9203 15.3417 33.0978 15.0757 32.9646Z" fill="#CCCCCC"/>
</svg>
