<svg width="38" height="39" viewBox="0 0 38 39" fill="none" xmlns="http://www.w3.org/2000/svg">
<path d="M0.361535 13.7469C0.361535 13.7469 -0.563997 13.0797 0.546645 12.1889L3.1343 9.87503C3.1343 9.87503 3.87472 9.09603 4.65759 9.77476L28.5365 27.8535V36.5228C28.5365 36.5228 28.525 37.8842 26.7779 37.7337L0.361535 13.7469Z" fill="#2489CA"/>
<path d="M6.51632 19.3345L0.361488 24.93C0.361488 24.93 -0.270964 25.4006 0.361488 26.2414L3.2191 28.8404C3.2191 28.8404 3.89782 29.5694 4.90048 28.7401L11.4255 23.7924L6.51632 19.3345Z" fill="#1070B3"/>
<path d="M17.322 19.3811L28.6098 10.762L28.5365 2.13904C28.5365 2.13904 28.0544 0.257103 26.4463 1.23663L11.4256 14.9075L17.322 19.3811Z" fill="#0877B9"/>
<path d="M26.7778 37.7452C27.4335 38.4161 28.2279 38.1964 28.2279 38.1964L37.0245 33.8617C38.1505 33.0942 37.9923 32.1418 37.9923 32.1418V6.25748C37.9923 5.11984 36.8276 4.72649 36.8276 4.72649L29.2036 1.05132C27.5377 0.0216683 26.4462 1.23643 26.4462 1.23643C26.4462 1.23643 27.8499 0.226055 28.5364 2.13884V36.3644C28.5364 36.5998 28.4862 36.831 28.3861 37.0394C28.1855 37.4443 27.7498 37.8222 26.7047 37.664L26.7778 37.7452Z" fill="#3C99D4"/>
</svg>
